ISO-10303-21;
HEADER;
/* Generated by software containing ST-Developer
 * from STEP Tools, Inc. (www.steptools.com) 
 */
/* OPTION: using custom renumber hook */

FILE_DESCRIPTION(
/* description */ ('STEP AP242 Edition 2',
'CAx-IF Rec.Pracs.---Representation and Presentation of Product Manufa
cturing Information (PMI)---4.0---2014-10-13',
'CAx-IF Rec.Pracs.---3D Tessellated Geometry---0.4---2014-09-14','2;1',
'CAx-IF Rec.Pracs.---User Defined Attributes---1.5---2016-08-15'),
/* implementation_level */ '2;1');

FILE_NAME(
/* name */ 'Lid',
/* time_stamp */ '2026-08-16T16:59:11Z',
/* author */ (''),
/* organization */ (''),
/* preprocessor_version */ 'ST-DEVELOPER v20',
/* originating_system */ 'ONSHAPE BY PTC INC, 1.219',
/* authorisation */ '  ');

FILE_SCHEMA (('AP242_MANAGED_MODEL_BASED_3D_ENGINEERING_MIM_LF { 1 0 10303 442 3 1 4 }'));
ENDSEC;

DATA;
#10=SHAPE_REPRESENTATION_RELATIONSHIP('','',#926,#11);
#11=ADVANCED_BREP_SHAPE_REPRESENTATION('',(#924),#1458);
#12=CYLINDRICAL_SURFACE('',#968,0.002);
#13=CYLINDRICAL_SURFACE('',#969,0.002);
#14=CYLINDRICAL_SURFACE('',#970,0.002);
#15=CYLINDRICAL_SURFACE('',#971,0.00325);
#16=CIRCLE('',#930,0.00325);
#17=CIRCLE('',#932,0.00325);
#18=CIRCLE('',#936,0.002);
#19=CIRCLE('',#937,0.002);
#20=CIRCLE('',#938,0.002);
#21=CIRCLE('',#940,0.002);
#22=CIRCLE('',#941,0.002);
#23=CIRCLE('',#942,0.002);
#24=ORIENTED_EDGE('',*,*,#270,.F.);
#25=ORIENTED_EDGE('',*,*,#271,.F.);
#26=ORIENTED_EDGE('',*,*,#272,.T.);
#27=ORIENTED_EDGE('',*,*,#273,.T.);
#28=ORIENTED_EDGE('',*,*,#274,.T.);
#29=ORIENTED_EDGE('',*,*,#275,.F.);
#30=ORIENTED_EDGE('',*,*,#276,.F.);
#31=ORIENTED_EDGE('',*,*,#277,.F.);
#32=ORIENTED_EDGE('',*,*,#273,.F.);
#33=ORIENTED_EDGE('',*,*,#278,.T.);
#34=ORIENTED_EDGE('',*,*,#279,.F.);
#35=ORIENTED_EDGE('',*,*,#280,.F.);
#36=ORIENTED_EDGE('',*,*,#281,.T.);
#37=ORIENTED_EDGE('',*,*,#282,.F.);
#38=ORIENTED_EDGE('',*,*,#283,.F.);
#39=ORIENTED_EDGE('',*,*,#284,.F.);
#40=ORIENTED_EDGE('',*,*,#285,.F.);
#41=ORIENTED_EDGE('',*,*,#286,.F.);
#42=ORIENTED_EDGE('',*,*,#287,.F.);
#43=ORIENTED_EDGE('',*,*,#288,.T.);
#44=ORIENTED_EDGE('',*,*,#289,.F.);
#45=ORIENTED_EDGE('',*,*,#290,.F.);
#46=ORIENTED_EDGE('',*,*,#291,.T.);
#47=ORIENTED_EDGE('',*,*,#292,.T.);
#48=ORIENTED_EDGE('',*,*,#293,.T.);
#49=ORIENTED_EDGE('',*,*,#294,.T.);
#50=ORIENTED_EDGE('',*,*,#295,.F.);
#51=ORIENTED_EDGE('',*,*,#296,.F.);
#52=ORIENTED_EDGE('',*,*,#297,.F.);
#53=ORIENTED_EDGE('',*,*,#298,.F.);
#54=ORIENTED_EDGE('',*,*,#299,.F.);
#55=ORIENTED_EDGE('',*,*,#300,.T.);
#56=ORIENTED_EDGE('',*,*,#301,.T.);
#57=ORIENTED_EDGE('',*,*,#302,.F.);
#58=ORIENTED_EDGE('',*,*,#303,.F.);
#59=ORIENTED_EDGE('',*,*,#304,.T.);
#60=ORIENTED_EDGE('',*,*,#305,.F.);
#61=ORIENTED_EDGE('',*,*,#306,.T.);
#62=ORIENTED_EDGE('',*,*,#307,.T.);
#63=ORIENTED_EDGE('',*,*,#308,.F.);
#64=ORIENTED_EDGE('',*,*,#309,.F.);
#65=ORIENTED_EDGE('',*,*,#310,.T.);
#66=ORIENTED_EDGE('',*,*,#297,.T.);
#67=ORIENTED_EDGE('',*,*,#311,.F.);
#68=ORIENTED_EDGE('',*,*,#312,.F.);
#69=ORIENTED_EDGE('',*,*,#313,.T.);
#70=ORIENTED_EDGE('',*,*,#314,.T.);
#71=ORIENTED_EDGE('',*,*,#309,.T.);
#72=ORIENTED_EDGE('',*,*,#315,.T.);
#73=ORIENTED_EDGE('',*,*,#316,.T.);
#74=ORIENTED_EDGE('',*,*,#317,.F.);
#75=ORIENTED_EDGE('',*,*,#318,.F.);
#76=ORIENTED_EDGE('',*,*,#319,.F.);
#77=ORIENTED_EDGE('',*,*,#320,.F.);
#78=ORIENTED_EDGE('',*,*,#321,.T.);
#79=ORIENTED_EDGE('',*,*,#322,.F.);
#80=ORIENTED_EDGE('',*,*,#323,.F.);
#81=ORIENTED_EDGE('',*,*,#271,.T.);
#82=ORIENTED_EDGE('',*,*,#324,.T.);
#83=ORIENTED_EDGE('',*,*,#325,.T.);
#84=ORIENTED_EDGE('',*,*,#326,.T.);
#85=ORIENTED_EDGE('',*,*,#327,.F.);
#86=ORIENTED_EDGE('',*,*,#328,.T.);
#87=ORIENTED_EDGE('',*,*,#329,.T.);
#88=ORIENTED_EDGE('',*,*,#330,.F.);
#89=ORIENTED_EDGE('',*,*,#331,.F.);
#90=ORIENTED_EDGE('',*,*,#332,.T.);
#91=ORIENTED_EDGE('',*,*,#333,.T.);
#92=ORIENTED_EDGE('',*,*,#334,.F.);
#93=ORIENTED_EDGE('',*,*,#335,.F.);
#94=ORIENTED_EDGE('',*,*,#336,.T.);
#95=ORIENTED_EDGE('',*,*,#337,.T.);
#96=ORIENTED_EDGE('',*,*,#338,.F.);
#97=ORIENTED_EDGE('',*,*,#339,.F.);
#98=ORIENTED_EDGE('',*,*,#340,.F.);
#99=ORIENTED_EDGE('',*,*,#341,.F.);
#100=ORIENTED_EDGE('',*,*,#342,.T.);
#101=ORIENTED_EDGE('',*,*,#343,.F.);
#102=ORIENTED_EDGE('',*,*,#344,.F.);
#103=ORIENTED_EDGE('',*,*,#345,.F.);
#104=ORIENTED_EDGE('',*,*,#346,.F.);
#105=ORIENTED_EDGE('',*,*,#347,.T.);
#106=ORIENTED_EDGE('',*,*,#348,.T.);
#107=ORIENTED_EDGE('',*,*,#349,.F.);
#108=ORIENTED_EDGE('',*,*,#331,.T.);
#109=ORIENTED_EDGE('',*,*,#350,.T.);
#110=ORIENTED_EDGE('',*,*,#280,.T.);
#111=ORIENTED_EDGE('',*,*,#351,.T.);
#112=ORIENTED_EDGE('',*,*,#351,.F.);
#113=ORIENTED_EDGE('',*,*,#279,.T.);
#114=ORIENTED_EDGE('',*,*,#352,.T.);
#115=ORIENTED_EDGE('',*,*,#289,.T.);
#116=ORIENTED_EDGE('',*,*,#353,.T.);
#117=ORIENTED_EDGE('',*,*,#332,.F.);
#118=ORIENTED_EDGE('',*,*,#354,.T.);
#119=ORIENTED_EDGE('',*,*,#286,.T.);
#120=ORIENTED_EDGE('',*,*,#355,.F.);
#121=ORIENTED_EDGE('',*,*,#303,.T.);
#122=ORIENTED_EDGE('',*,*,#287,.T.);
#123=ORIENTED_EDGE('',*,*,#354,.F.);
#124=ORIENTED_EDGE('',*,*,#302,.T.);
#125=ORIENTED_EDGE('',*,*,#356,.T.);
#126=ORIENTED_EDGE('',*,*,#285,.T.);
#127=ORIENTED_EDGE('',*,*,#357,.T.);
#128=ORIENTED_EDGE('',*,*,#334,.T.);
#129=ORIENTED_EDGE('',*,*,#358,.F.);
#130=ORIENTED_EDGE('',*,*,#343,.T.);
#131=ORIENTED_EDGE('',*,*,#359,.T.);
#132=ORIENTED_EDGE('',*,*,#304,.F.);
#133=ORIENTED_EDGE('',*,*,#355,.T.);
#134=ORIENTED_EDGE('',*,*,#333,.F.);
#135=ORIENTED_EDGE('',*,*,#353,.F.);
#136=ORIENTED_EDGE('',*,*,#288,.F.);
#137=ORIENTED_EDGE('',*,*,#356,.F.);
#138=ORIENTED_EDGE('',*,*,#301,.F.);
#139=ORIENTED_EDGE('',*,*,#360,.F.);
#140=ORIENTED_EDGE('',*,*,#344,.T.);
#141=ORIENTED_EDGE('',*,*,#358,.T.);
#142=ORIENTED_EDGE('',*,*,#359,.F.);
#143=ORIENTED_EDGE('',*,*,#342,.F.);
#144=ORIENTED_EDGE('',*,*,#361,.F.);
#145=ORIENTED_EDGE('',*,*,#299,.T.);
#146=ORIENTED_EDGE('',*,*,#300,.F.);
#147=ORIENTED_EDGE('',*,*,#361,.T.);
#148=ORIENTED_EDGE('',*,*,#345,.T.);
#149=ORIENTED_EDGE('',*,*,#360,.T.);
#150=ORIENTED_EDGE('',*,*,#362,.F.);
#151=ORIENTED_EDGE('',*,*,#327,.T.);
#152=ORIENTED_EDGE('',*,*,#357,.F.);
#153=ORIENTED_EDGE('',*,*,#284,.T.);
#154=ORIENTED_EDGE('',*,*,#278,.F.);
#155=ORIENTED_EDGE('',*,*,#272,.F.);
#156=ORIENTED_EDGE('',*,*,#323,.T.);
#157=ORIENTED_EDGE('',*,*,#363,.T.);
#158=ORIENTED_EDGE('',*,*,#296,.T.);
#159=ORIENTED_EDGE('',*,*,#364,.F.);
#160=ORIENTED_EDGE('',*,*,#315,.F.);
#161=ORIENTED_EDGE('',*,*,#311,.T.);
#162=ORIENTED_EDGE('',*,*,#295,.T.);
#163=ORIENTED_EDGE('',*,*,#365,.F.);
#164=ORIENTED_EDGE('',*,*,#316,.F.);
#165=ORIENTED_EDGE('',*,*,#364,.T.);
#166=ORIENTED_EDGE('',*,*,#294,.F.);
#167=ORIENTED_EDGE('',*,*,#366,.F.);
#168=ORIENTED_EDGE('',*,*,#317,.T.);
#169=ORIENTED_EDGE('',*,*,#365,.T.);
#170=ORIENTED_EDGE('',*,*,#293,.F.);
#171=ORIENTED_EDGE('',*,*,#367,.F.);
#172=ORIENTED_EDGE('',*,*,#318,.T.);
#173=ORIENTED_EDGE('',*,*,#366,.T.);
#174=ORIENTED_EDGE('',*,*,#292,.F.);
#175=ORIENTED_EDGE('',*,*,#368,.F.);
#176=ORIENTED_EDGE('',*,*,#319,.T.);
#177=ORIENTED_EDGE('',*,*,#367,.T.);
#178=ORIENTED_EDGE('',*,*,#291,.F.);
#179=ORIENTED_EDGE('',*,*,#369,.F.);
#180=ORIENTED_EDGE('',*,*,#320,.T.);
#181=ORIENTED_EDGE('',*,*,#368,.T.);
#182=ORIENTED_EDGE('',*,*,#290,.T.);
#183=ORIENTED_EDGE('',*,*,#370,.F.);
#184=ORIENTED_EDGE('',*,*,#321,.F.);
#185=ORIENTED_EDGE('',*,*,#369,.T.);
#186=ORIENTED_EDGE('',*,*,#352,.F.);
#187=ORIENTED_EDGE('',*,*,#363,.F.);
#188=ORIENTED_EDGE('',*,*,#322,.T.);
#189=ORIENTED_EDGE('',*,*,#370,.T.);
#190=ORIENTED_EDGE('',*,*,#283,.T.);
#191=ORIENTED_EDGE('',*,*,#371,.F.);
#192=ORIENTED_EDGE('',*,*,#328,.F.);
#193=ORIENTED_EDGE('',*,*,#362,.T.);
#194=ORIENTED_EDGE('',*,*,#282,.T.);
#195=ORIENTED_EDGE('',*,*,#372,.F.);
#196=ORIENTED_EDGE('',*,*,#329,.F.);
#197=ORIENTED_EDGE('',*,*,#371,.T.);
#198=ORIENTED_EDGE('',*,*,#281,.F.);
#199=ORIENTED_EDGE('',*,*,#350,.F.);
#200=ORIENTED_EDGE('',*,*,#330,.T.);
#201=ORIENTED_EDGE('',*,*,#372,.T.);
#202=ORIENTED_EDGE('',*,*,#335,.T.);
#203=ORIENTED_EDGE('',*,*,#373,.T.);
#204=ORIENTED_EDGE('',*,*,#347,.F.);
#205=ORIENTED_EDGE('',*,*,#374,.F.);
#206=ORIENTED_EDGE('',*,*,#374,.T.);
#207=ORIENTED_EDGE('',*,*,#346,.T.);
#208=ORIENTED_EDGE('',*,*,#375,.F.);
#209=ORIENTED_EDGE('',*,*,#336,.F.);
#210=ORIENTED_EDGE('',*,*,#375,.T.);
#211=ORIENTED_EDGE('',*,*,#349,.T.);
#212=ORIENTED_EDGE('',*,*,#376,.F.);
#213=ORIENTED_EDGE('',*,*,#337,.F.);
#214=ORIENTED_EDGE('',*,*,#338,.T.);
#215=ORIENTED_EDGE('',*,*,#376,.T.);
#216=ORIENTED_EDGE('',*,*,#348,.F.);
#217=ORIENTED_EDGE('',*,*,#373,.F.);
#218=ORIENTED_EDGE('',*,*,#341,.T.);
#219=ORIENTED_EDGE('',*,*,#326,.F.);
#220=ORIENTED_EDGE('',*,*,#340,.T.);
#221=ORIENTED_EDGE('',*,*,#325,.F.);
#222=ORIENTED_EDGE('',*,*,#339,.T.);
#223=ORIENTED_EDGE('',*,*,#324,.F.);
#224=ORIENTED_EDGE('',*,*,#298,.T.);
#225=ORIENTED_EDGE('',*,*,#274,.F.);
#226=ORIENTED_EDGE('',*,*,#377,.T.);
#227=ORIENTED_EDGE('',*,*,#305,.T.);
#228=ORIENTED_EDGE('',*,*,#378,.F.);
#229=ORIENTED_EDGE('',*,*,#379,.F.);
#230=ORIENTED_EDGE('',*,*,#377,.F.);
#231=ORIENTED_EDGE('',*,*,#380,.T.);
#232=ORIENTED_EDGE('',*,*,#381,.T.);
#233=ORIENTED_EDGE('',*,*,#306,.F.);
#234=ORIENTED_EDGE('',*,*,#378,.T.);
#235=ORIENTED_EDGE('',*,*,#308,.T.);
#236=ORIENTED_EDGE('',*,*,#382,.F.);
#237=ORIENTED_EDGE('',*,*,#383,.F.);
#238=ORIENTED_EDGE('',*,*,#382,.T.);
#239=ORIENTED_EDGE('',*,*,#307,.F.);
#240=ORIENTED_EDGE('',*,*,#381,.F.);
#241=ORIENTED_EDGE('',*,*,#384,.F.);
#242=ORIENTED_EDGE('',*,*,#277,.T.);
#243=ORIENTED_EDGE('',*,*,#385,.F.);
#244=ORIENTED_EDGE('',*,*,#386,.F.);
#245=ORIENTED_EDGE('',*,*,#387,.T.);
#246=ORIENTED_EDGE('',*,*,#312,.T.);
#247=ORIENTED_EDGE('',*,*,#270,.T.);
#248=ORIENTED_EDGE('',*,*,#276,.T.);
#249=ORIENTED_EDGE('',*,*,#388,.F.);
#250=ORIENTED_EDGE('',*,*,#389,.F.);
#251=ORIENTED_EDGE('',*,*,#385,.T.);
#252=ORIENTED_EDGE('',*,*,#275,.T.);
#253=ORIENTED_EDGE('',*,*,#310,.F.);
#254=ORIENTED_EDGE('',*,*,#314,.F.);
#255=ORIENTED_EDGE('',*,*,#390,.F.);
#256=ORIENTED_EDGE('',*,*,#391,.F.);
#257=ORIENTED_EDGE('',*,*,#388,.T.);
#258=ORIENTED_EDGE('',*,*,#383,.T.);
#259=ORIENTED_EDGE('',*,*,#384,.T.);
#260=ORIENTED_EDGE('',*,*,#380,.F.);
#261=ORIENTED_EDGE('',*,*,#379,.T.);
#262=ORIENTED_EDGE('',*,*,#392,.F.);
#263=ORIENTED_EDGE('',*,*,#386,.T.);
#264=ORIENTED_EDGE('',*,*,#389,.T.);
#265=ORIENTED_EDGE('',*,*,#391,.T.);
#266=ORIENTED_EDGE('',*,*,#313,.F.);
#267=ORIENTED_EDGE('',*,*,#387,.F.);
#268=ORIENTED_EDGE('',*,*,#392,.T.);
#269=ORIENTED_EDGE('',*,*,#390,.T.);
#270=EDGE_CURVE('',#393,#394,#477,.T.);
#271=EDGE_CURVE('',#395,#393,#478,.T.);
#272=EDGE_CURVE('',#395,#396,#479,.T.);
#273=EDGE_CURVE('',#396,#394,#480,.T.);
#274=EDGE_CURVE('',#397,#397,#16,.T.);
#275=EDGE_CURVE('',#398,#399,#481,.T.);
#276=EDGE_CURVE('',#400,#398,#482,.T.);
#277=EDGE_CURVE('',#394,#400,#483,.T.);
#278=EDGE_CURVE('',#396,#401,#484,.T.);
#279=EDGE_CURVE('',#402,#401,#485,.T.);
#280=EDGE_CURVE('',#403,#402,#486,.T.);
#281=EDGE_CURVE('',#403,#404,#487,.T.);
#282=EDGE_CURVE('',#405,#404,#488,.T.);
#283=EDGE_CURVE('',#406,#405,#489,.T.);
#284=EDGE_CURVE('',#407,#406,#490,.T.);
#285=EDGE_CURVE('',#408,#407,#491,.T.);
#286=EDGE_CURVE('',#409,#408,#492,.T.);
#287=EDGE_CURVE('',#410,#409,#493,.T.);
#288=EDGE_CURVE('',#410,#411,#494,.T.);
#289=EDGE_CURVE('',#412,#411,#495,.T.);
#290=EDGE_CURVE('',#413,#412,#496,.T.);
#291=EDGE_CURVE('',#413,#414,#497,.T.);
#292=EDGE_CURVE('',#414,#415,#498,.T.);
#293=EDGE_CURVE('',#415,#416,#499,.T.);
#294=EDGE_CURVE('',#416,#417,#500,.T.);
#295=EDGE_CURVE('',#418,#417,#501,.T.);
#296=EDGE_CURVE('',#419,#418,#502,.T.);
#297=EDGE_CURVE('',#399,#419,#503,.T.);
#298=EDGE_CURVE('',#420,#420,#17,.T.);
#299=EDGE_CURVE('',#421,#422,#504,.T.);
#300=EDGE_CURVE('',#421,#423,#505,.T.);
#301=EDGE_CURVE('',#423,#424,#506,.T.);
#302=EDGE_CURVE('',#425,#424,#507,.T.);
#303=EDGE_CURVE('',#426,#425,#508,.T.);
#304=EDGE_CURVE('',#426,#422,#509,.T.);
#305=EDGE_CURVE('',#427,#428,#510,.T.);
#306=EDGE_CURVE('',#427,#429,#511,.T.);
#307=EDGE_CURVE('',#429,#430,#512,.T.);
#308=EDGE_CURVE('',#428,#430,#513,.T.);
#309=EDGE_CURVE('',#431,#432,#514,.T.);
#310=EDGE_CURVE('',#431,#399,#515,.T.);
#311=EDGE_CURVE('',#432,#419,#516,.T.);
#312=EDGE_CURVE('',#433,#393,#517,.T.);
#313=EDGE_CURVE('',#433,#434,#518,.T.);
#314=EDGE_CURVE('',#434,#431,#519,.T.);
#315=EDGE_CURVE('',#432,#435,#520,.T.);
#316=EDGE_CURVE('',#435,#436,#521,.T.);
#317=EDGE_CURVE('',#437,#436,#522,.T.);
#318=EDGE_CURVE('',#438,#437,#523,.T.);
#319=EDGE_CURVE('',#439,#438,#524,.T.);
#320=EDGE_CURVE('',#440,#439,#525,.T.);
#321=EDGE_CURVE('',#440,#441,#526,.T.);
#322=EDGE_CURVE('',#442,#441,#527,.T.);
#323=EDGE_CURVE('',#395,#442,#528,.T.);
#324=EDGE_CURVE('',#443,#443,#18,.T.);
#325=EDGE_CURVE('',#444,#444,#19,.T.);
#326=EDGE_CURVE('',#445,#445,#20,.T.);
#327=EDGE_CURVE('',#446,#447,#529,.T.);
#328=EDGE_CURVE('',#446,#448,#530,.T.);
#329=EDGE_CURVE('',#448,#449,#531,.T.);
#330=EDGE_CURVE('',#450,#449,#532,.T.);
#331=EDGE_CURVE('',#451,#450,#533,.T.);
#332=EDGE_CURVE('',#451,#452,#534,.T.);
#333=EDGE_CURVE('',#452,#453,#535,.T.);
#334=EDGE_CURVE('',#447,#453,#536,.T.);
#335=EDGE_CURVE('',#454,#455,#537,.T.);
#336=EDGE_CURVE('',#454,#456,#538,.T.);
#337=EDGE_CURVE('',#456,#457,#539,.T.);
#338=EDGE_CURVE('',#455,#457,#540,.T.);
#339=EDGE_CURVE('',#458,#458,#21,.T.);
#340=EDGE_CURVE('',#459,#459,#22,.T.);
#341=EDGE_CURVE('',#460,#460,#23,.T.);
#342=EDGE_CURVE('',#461,#462,#541,.T.);
#343=EDGE_CURVE('',#463,#462,#542,.T.);
#344=EDGE_CURVE('',#464,#463,#543,.T.);
#345=EDGE_CURVE('',#461,#464,#544,.T.);
#346=EDGE_CURVE('',#465,#466,#545,.T.);
#347=EDGE_CURVE('',#465,#467,#546,.T.);
#348=EDGE_CURVE('',#467,#468,#547,.T.);
#349=EDGE_CURVE('',#466,#468,#548,.T.);
#350=EDGE_CURVE('',#450,#403,#549,.T.);
#351=EDGE_CURVE('',#402,#451,#550,.T.);
#352=EDGE_CURVE('',#401,#412,#551,.T.);
#353=EDGE_CURVE('',#411,#452,#552,.T.);
#354=EDGE_CURVE('',#425,#409,#553,.T.);
#355=EDGE_CURVE('',#426,#408,#554,.T.);
#356=EDGE_CURVE('',#424,#410,#555,.T.);
#357=EDGE_CURVE('',#407,#447,#556,.T.);
#358=EDGE_CURVE('',#463,#453,#557,.T.);
#359=EDGE_CURVE('',#462,#422,#558,.T.);
#360=EDGE_CURVE('',#464,#423,#559,.T.);
#361=EDGE_CURVE('',#421,#461,#560,.T.);
#362=EDGE_CURVE('',#446,#406,#561,.T.);
#363=EDGE_CURVE('',#442,#401,#562,.T.);
#364=EDGE_CURVE('',#435,#418,#563,.T.);
#365=EDGE_CURVE('',#436,#417,#564,.T.);
#366=EDGE_CURVE('',#437,#416,#565,.T.);
#367=EDGE_CURVE('',#438,#415,#566,.T.);
#368=EDGE_CURVE('',#439,#414,#567,.T.);
#369=EDGE_CURVE('',#440,#413,#568,.T.);
#370=EDGE_CURVE('',#441,#412,#569,.T.);
#371=EDGE_CURVE('',#448,#405,#570,.T.);
#372=EDGE_CURVE('',#449,#404,#571,.T.);
#373=EDGE_CURVE('',#455,#467,#572,.T.);
#374=EDGE_CURVE('',#454,#465,#573,.T.);
#375=EDGE_CURVE('',#456,#466,#574,.T.);
#376=EDGE_CURVE('',#457,#468,#575,.T.);
#377=EDGE_CURVE('',#469,#427,#576,.T.);
#378=EDGE_CURVE('',#470,#428,#577,.T.);
#379=EDGE_CURVE('',#469,#470,#578,.T.);
#380=EDGE_CURVE('',#469,#471,#579,.T.);
#381=EDGE_CURVE('',#471,#429,#580,.T.);
#382=EDGE_CURVE('',#472,#430,#581,.T.);
#383=EDGE_CURVE('',#470,#472,#582,.T.);
#384=EDGE_CURVE('',#472,#471,#583,.T.);
#385=EDGE_CURVE('',#473,#400,#584,.T.);
#386=EDGE_CURVE('',#474,#473,#585,.T.);
#387=EDGE_CURVE('',#474,#433,#586,.T.);
#388=EDGE_CURVE('',#475,#398,#587,.T.);
#389=EDGE_CURVE('',#473,#475,#588,.T.);
#390=EDGE_CURVE('',#476,#434,#589,.T.);
#391=EDGE_CURVE('',#475,#476,#590,.T.);
#392=EDGE_CURVE('',#474,#476,#591,.T.);
#393=VERTEX_POINT('',#1207);
#394=VERTEX_POINT('',#1208);
#395=VERTEX_POINT('',#1210);
#396=VERTEX_POINT('',#1212);
#397=VERTEX_POINT('',#1216);
#398=VERTEX_POINT('',#1218);
#399=VERTEX_POINT('',#1219);
#400=VERTEX_POINT('',#1221);
#401=VERTEX_POINT('',#1224);
#402=VERTEX_POINT('',#1226);
#403=VERTEX_POINT('',#1228);
#404=VERTEX_POINT('',#1230);
#405=VERTEX_POINT('',#1232);
#406=VERTEX_POINT('',#1234);
#407=VERTEX_POINT('',#1236);
#408=VERTEX_POINT('',#1238);
#409=VERTEX_POINT('',#1240);
#410=VERTEX_POINT('',#1242);
#411=VERTEX_POINT('',#1244);
#412=VERTEX_POINT('',#1246);
#413=VERTEX_POINT('',#1248);
#414=VERTEX_POINT('',#1250);
#415=VERTEX_POINT('',#1252);
#416=VERTEX_POINT('',#1254);
#417=VERTEX_POINT('',#1256);
#418=VERTEX_POINT('',#1258);
#419=VERTEX_POINT('',#1260);
#420=VERTEX_POINT('',#1264);
#421=VERTEX_POINT('',#1266);
#422=VERTEX_POINT('',#1267);
#423=VERTEX_POINT('',#1269);
#424=VERTEX_POINT('',#1271);
#425=VERTEX_POINT('',#1273);
#426=VERTEX_POINT('',#1275);
#427=VERTEX_POINT('',#1278);
#428=VERTEX_POINT('',#1279);
#429=VERTEX_POINT('',#1281);
#430=VERTEX_POINT('',#1283);
#431=VERTEX_POINT('',#1287);
#432=VERTEX_POINT('',#1288);
#433=VERTEX_POINT('',#1293);
#434=VERTEX_POINT('',#1295);
#435=VERTEX_POINT('',#1298);
#436=VERTEX_POINT('',#1300);
#437=VERTEX_POINT('',#1302);
#438=VERTEX_POINT('',#1304);
#439=VERTEX_POINT('',#1306);
#440=VERTEX_POINT('',#1308);
#441=VERTEX_POINT('',#1310);
#442=VERTEX_POINT('',#1312);
#443=VERTEX_POINT('',#1316);
#444=VERTEX_POINT('',#1318);
#445=VERTEX_POINT('',#1320);
#446=VERTEX_POINT('',#1322);
#447=VERTEX_POINT('',#1323);
#448=VERTEX_POINT('',#1325);
#449=VERTEX_POINT('',#1327);
#450=VERTEX_POINT('',#1329);
#451=VERTEX_POINT('',#1331);
#452=VERTEX_POINT('',#1333);
#453=VERTEX_POINT('',#1335);
#454=VERTEX_POINT('',#1338);
#455=VERTEX_POINT('',#1339);
#456=VERTEX_POINT('',#1341);
#457=VERTEX_POINT('',#1343);
#458=VERTEX_POINT('',#1347);
#459=VERTEX_POINT('',#1349);
#460=VERTEX_POINT('',#1351);
#461=VERTEX_POINT('',#1353);
#462=VERTEX_POINT('',#1354);
#463=VERTEX_POINT('',#1356);
#464=VERTEX_POINT('',#1358);
#465=VERTEX_POINT('',#1361);
#466=VERTEX_POINT('',#1362);
#467=VERTEX_POINT('',#1364);
#468=VERTEX_POINT('',#1366);
#469=VERTEX_POINT('',#1426);
#470=VERTEX_POINT('',#1428);
#471=VERTEX_POINT('',#1432);
#472=VERTEX_POINT('',#1436);
#473=VERTEX_POINT('',#1442);
#474=VERTEX_POINT('',#1444);
#475=VERTEX_POINT('',#1448);
#476=VERTEX_POINT('',#1452);
#477=LINE('',#1206,#592);
#478=LINE('',#1209,#593);
#479=LINE('',#1211,#594);
#480=LINE('',#1213,#595);
#481=LINE('',#1217,#596);
#482=LINE('',#1220,#597);
#483=LINE('',#1222,#598);
#484=LINE('',#1223,#599);
#485=LINE('',#1225,#600);
#486=LINE('',#1227,#601);
#487=LINE('',#1229,#602);
#488=LINE('',#1231,#603);
#489=LINE('',#1233,#604);
#490=LINE('',#1235,#605);
#491=LINE('',#1237,#606);
#492=LINE('',#1239,#607);
#493=LINE('',#1241,#608);
#494=LINE('',#1243,#609);
#495=LINE('',#1245,#610);
#496=LINE('',#1247,#611);
#497=LINE('',#1249,#612);
#498=LINE('',#1251,#613);
#499=LINE('',#1253,#614);
#500=LINE('',#1255,#615);
#501=LINE('',#1257,#616);
#502=LINE('',#1259,#617);
#503=LINE('',#1261,#618);
#504=LINE('',#1265,#619);
#505=LINE('',#1268,#620);
#506=LINE('',#1270,#621);
#507=LINE('',#1272,#622);
#508=LINE('',#1274,#623);
#509=LINE('',#1276,#624);
#510=LINE('',#1277,#625);
#511=LINE('',#1280,#626);
#512=LINE('',#1282,#627);
#513=LINE('',#1284,#628);
#514=LINE('',#1286,#629);
#515=LINE('',#1289,#630);
#516=LINE('',#1290,#631);
#517=LINE('',#1292,#632);
#518=LINE('',#1294,#633);
#519=LINE('',#1296,#634);
#520=LINE('',#1297,#635);
#521=LINE('',#1299,#636);
#522=LINE('',#1301,#637);
#523=LINE('',#1303,#638);
#524=LINE('',#1305,#639);
#525=LINE('',#1307,#640);
#526=LINE('',#1309,#641);
#527=LINE('',#1311,#642);
#528=LINE('',#1313,#643);
#529=LINE('',#1321,#644);
#530=LINE('',#1324,#645);
#531=LINE('',#1326,#646);
#532=LINE('',#1328,#647);
#533=LINE('',#1330,#648);
#534=LINE('',#1332,#649);
#535=LINE('',#1334,#650);
#536=LINE('',#1336,#651);
#537=LINE('',#1337,#652);
#538=LINE('',#1340,#653);
#539=LINE('',#1342,#654);
#540=LINE('',#1344,#655);
#541=LINE('',#1352,#656);
#542=LINE('',#1355,#657);
#543=LINE('',#1357,#658);
#544=LINE('',#1359,#659);
#545=LINE('',#1360,#660);
#546=LINE('',#1363,#661);
#547=LINE('',#1365,#662);
#548=LINE('',#1367,#663);
#549=LINE('',#1369,#664);
#550=LINE('',#1370,#665);
#551=LINE('',#1372,#666);
#552=LINE('',#1373,#667);
#553=LINE('',#1375,#668);
#554=LINE('',#1376,#669);
#555=LINE('',#1378,#670);
#556=LINE('',#1380,#671);
#557=LINE('',#1381,#672);
#558=LINE('',#1382,#673);
#559=LINE('',#1384,#674);
#560=LINE('',#1386,#675);
#561=LINE('',#1389,#676);
#562=LINE('',#1391,#677);
#563=LINE('',#1393,#678);
#564=LINE('',#1395,#679);
#565=LINE('',#1397,#680);
#566=LINE('',#1399,#681);
#567=LINE('',#1401,#682);
#568=LINE('',#1403,#683);
#569=LINE('',#1405,#684);
#570=LINE('',#1408,#685);
#571=LINE('',#1410,#686);
#572=LINE('',#1413,#687);
#573=LINE('',#1414,#688);
#574=LINE('',#1416,#689);
#575=LINE('',#1418,#690);
#576=LINE('',#1425,#691);
#577=LINE('',#1427,#692);
#578=LINE('',#1429,#693);
#579=LINE('',#1431,#694);
#580=LINE('',#1433,#695);
#581=LINE('',#1435,#696);
#582=LINE('',#1437,#697);
#583=LINE('',#1439,#698);
#584=LINE('',#1441,#699);
#585=LINE('',#1443,#700);
#586=LINE('',#1445,#701);
#587=LINE('',#1447,#702);
#588=LINE('',#1449,#703);
#589=LINE('',#1451,#704);
#590=LINE('',#1453,#705);
#591=LINE('',#1455,#706);
#592=VECTOR('',#985,1.);
#593=VECTOR('',#986,1.);
#594=VECTOR('',#987,1.);
#595=VECTOR('',#988,1.);
#596=VECTOR('',#993,1.);
#597=VECTOR('',#994,1.);
#598=VECTOR('',#995,1.);
#599=VECTOR('',#996,1.);
#600=VECTOR('',#997,1.);
#601=VECTOR('',#998,1.);
#602=VECTOR('',#999,1.);
#603=VECTOR('',#1000,1.);
#604=VECTOR('',#1001,1.);
#605=VECTOR('',#1002,1.);
#606=VECTOR('',#1003,1.);
#607=VECTOR('',#1004,1.);
#608=VECTOR('',#1005,1.);
#609=VECTOR('',#1006,1.);
#610=VECTOR('',#1007,1.);
#611=VECTOR('',#1008,1.);
#612=VECTOR('',#1009,1.);
#613=VECTOR('',#1010,1.);
#614=VECTOR('',#1011,1.);
#615=VECTOR('',#1012,1.);
#616=VECTOR('',#1013,1.);
#617=VECTOR('',#1014,1.);
#618=VECTOR('',#1015,1.);
#619=VECTOR('',#1020,1.);
#620=VECTOR('',#1021,1.);
#621=VECTOR('',#1022,1.);
#622=VECTOR('',#1023,1.);
#623=VECTOR('',#1024,1.);
#624=VECTOR('',#1025,1.);
#625=VECTOR('',#1026,1.);
#626=VECTOR('',#1027,1.);
#627=VECTOR('',#1028,1.);
#628=VECTOR('',#1029,1.);
#629=VECTOR('',#1032,1.);
#630=VECTOR('',#1033,1.);
#631=VECTOR('',#1034,1.);
#632=VECTOR('',#1037,1.);
#633=VECTOR('',#1038,1.);
#634=VECTOR('',#1039,1.);
#635=VECTOR('',#1040,1.);
#636=VECTOR('',#1041,1.);
#637=VECTOR('',#1042,1.);
#638=VECTOR('',#1043,1.);
#639=VECTOR('',#1044,1.);
#640=VECTOR('',#1045,1.);
#641=VECTOR('',#1046,1.);
#642=VECTOR('',#1047,1.);
#643=VECTOR('',#1048,1.);
#644=VECTOR('',#1057,1.);
#645=VECTOR('',#1058,1.);
#646=VECTOR('',#1059,1.);
#647=VECTOR('',#1060,1.);
#648=VECTOR('',#1061,1.);
#649=VECTOR('',#1062,1.);
#650=VECTOR('',#1063,1.);
#651=VECTOR('',#1064,1.);
#652=VECTOR('',#1065,1.);
#653=VECTOR('',#1066,1.);
#654=VECTOR('',#1067,1.);
#655=VECTOR('',#1068,1.);
#656=VECTOR('',#1077,1.);
#657=VECTOR('',#1078,1.);
#658=VECTOR('',#1079,1.);
#659=VECTOR('',#1080,1.);
#660=VECTOR('',#1081,1.);
#661=VECTOR('',#1082,1.);
#662=VECTOR('',#1083,1.);
#663=VECTOR('',#1084,1.);
#664=VECTOR('',#1087,1.);
#665=VECTOR('',#1088,1.);
#666=VECTOR('',#1091,1.);
#667=VECTOR('',#1092,1.);
#668=VECTOR('',#1095,1.);
#669=VECTOR('',#1096,1.);
#670=VECTOR('',#1099,1.);
#671=VECTOR('',#1102,1.);
#672=VECTOR('',#1103,1.);
#673=VECTOR('',#1104,1.);
#674=VECTOR('',#1107,1.);
#675=VECTOR('',#1110,1.);
#676=VECTOR('',#1115,1.);
#677=VECTOR('',#1118,1.);
#678=VECTOR('',#1121,1.);
#679=VECTOR('',#1124,1.);
#680=VECTOR('',#1127,1.);
#681=VECTOR('',#1130,1.);
#682=VECTOR('',#1133,1.);
#683=VECTOR('',#1136,1.);
#684=VECTOR('',#1139,1.);
#685=VECTOR('',#1144,1.);
#686=VECTOR('',#1147,1.);
#687=VECTOR('',#1152,1.);
#688=VECTOR('',#1153,1.);
#689=VECTOR('',#1156,1.);
#690=VECTOR('',#1159,1.);
#691=VECTOR('',#1172,1.);
#692=VECTOR('',#1173,1.);
#693=VECTOR('',#1174,1.);
#694=VECTOR('',#1177,1.);
#695=VECTOR('',#1178,1.);
#696=VECTOR('',#1181,1.);
#697=VECTOR('',#1182,1.);
#698=VECTOR('',#1185,1.);
#699=VECTOR('',#1188,1.);
#700=VECTOR('',#1189,1.);
#701=VECTOR('',#1190,1.);
#702=VECTOR('',#1193,1.);
#703=VECTOR('',#1194,1.);
#704=VECTOR('',#1197,1.);
#705=VECTOR('',#1198,1.);
#706=VECTOR('',#1201,1.);
#707=EDGE_LOOP('',(#24,#25,#26,#27));
#708=EDGE_LOOP('',(#28));
#709=EDGE_LOOP('',(#29,#30,#31,#32,#33,#34,#35,#36,#37,#38,#39,#40,#41,
#42,#43,#44,#45,#46,#47,#48,#49,#50,#51,#52));
#710=EDGE_LOOP('',(#53));
#711=EDGE_LOOP('',(#54,#55,#56,#57,#58,#59));
#712=EDGE_LOOP('',(#60,#61,#62,#63));
#713=EDGE_LOOP('',(#64,#65,#66,#67));
#714=EDGE_LOOP('',(#68,#69,#70,#71,#72,#73,#74,#75,#76,#77,#78,#79,#80,
#81));
#715=EDGE_LOOP('',(#82));
#716=EDGE_LOOP('',(#83));
#717=EDGE_LOOP('',(#84));
#718=EDGE_LOOP('',(#85,#86,#87,#88,#89,#90,#91,#92));
#719=EDGE_LOOP('',(#93,#94,#95,#96));
#720=EDGE_LOOP('',(#97));
#721=EDGE_LOOP('',(#98));
#722=EDGE_LOOP('',(#99));
#723=EDGE_LOOP('',(#100,#101,#102,#103));
#724=EDGE_LOOP('',(#104,#105,#106,#107));
#725=EDGE_LOOP('',(#108,#109,#110,#111));
#726=EDGE_LOOP('',(#112,#113,#114,#115,#116,#117));
#727=EDGE_LOOP('',(#118,#119,#120,#121));
#728=EDGE_LOOP('',(#122,#123,#124,#125));
#729=EDGE_LOOP('',(#126,#127,#128,#129,#130,#131,#132,#133));
#730=EDGE_LOOP('',(#134,#135,#136,#137,#138,#139,#140,#141));
#731=EDGE_LOOP('',(#142,#143,#144,#145));
#732=EDGE_LOOP('',(#146,#147,#148,#149));
#733=EDGE_LOOP('',(#150,#151,#152,#153));
#734=EDGE_LOOP('',(#154,#155,#156,#157));
#735=EDGE_LOOP('',(#158,#159,#160,#161));
#736=EDGE_LOOP('',(#162,#163,#164,#165));
#737=EDGE_LOOP('',(#166,#167,#168,#169));
#738=EDGE_LOOP('',(#170,#171,#172,#173));
#739=EDGE_LOOP('',(#174,#175,#176,#177));
#740=EDGE_LOOP('',(#178,#179,#180,#181));
#741=EDGE_LOOP('',(#182,#183,#184,#185));
#742=EDGE_LOOP('',(#186,#187,#188,#189));
#743=EDGE_LOOP('',(#190,#191,#192,#193));
#744=EDGE_LOOP('',(#194,#195,#196,#197));
#745=EDGE_LOOP('',(#198,#199,#200,#201));
#746=EDGE_LOOP('',(#202,#203,#204,#205));
#747=EDGE_LOOP('',(#206,#207,#208,#209));
#748=EDGE_LOOP('',(#210,#211,#212,#213));
#749=EDGE_LOOP('',(#214,#215,#216,#217));
#750=EDGE_LOOP('',(#218));
#751=EDGE_LOOP('',(#219));
#752=EDGE_LOOP('',(#220));
#753=EDGE_LOOP('',(#221));
#754=EDGE_LOOP('',(#222));
#755=EDGE_LOOP('',(#223));
#756=EDGE_LOOP('',(#224));
#757=EDGE_LOOP('',(#225));
#758=EDGE_LOOP('',(#226,#227,#228,#229));
#759=EDGE_LOOP('',(#230,#231,#232,#233));
#760=EDGE_LOOP('',(#234,#235,#236,#237));
#761=EDGE_LOOP('',(#238,#239,#240,#241));
#762=EDGE_LOOP('',(#242,#243,#244,#245,#246,#247));
#763=EDGE_LOOP('',(#248,#249,#250,#251));
#764=EDGE_LOOP('',(#252,#253,#254,#255,#256,#257));
#765=EDGE_LOOP('',(#258,#259,#260,#261));
#766=EDGE_LOOP('',(#262,#263,#264,#265));
#767=EDGE_LOOP('',(#266,#267,#268,#269));
#768=FACE_BOUND('',#707,.T.);
#769=FACE_BOUND('',#708,.T.);
#770=FACE_BOUND('',#709,.T.);
#771=FACE_BOUND('',#710,.T.);
#772=FACE_BOUND('',#711,.T.);
#773=FACE_BOUND('',#712,.T.);
#774=FACE_BOUND('',#713,.T.);
#775=FACE_BOUND('',#714,.T.);
#776=FACE_BOUND('',#715,.T.);
#777=FACE_BOUND('',#716,.T.);
#778=FACE_BOUND('',#717,.T.);
#779=FACE_BOUND('',#718,.T.);
#780=FACE_BOUND('',#719,.T.);
#781=FACE_BOUND('',#720,.T.);
#782=FACE_BOUND('',#721,.T.);
#783=FACE_BOUND('',#722,.T.);
#784=FACE_BOUND('',#723,.T.);
#785=FACE_BOUND('',#724,.T.);
#786=FACE_BOUND('',#725,.T.);
#787=FACE_BOUND('',#726,.T.);
#788=FACE_BOUND('',#727,.T.);
#789=FACE_BOUND('',#728,.T.);
#790=FACE_BOUND('',#729,.T.);
#791=FACE_BOUND('',#730,.T.);
#792=FACE_BOUND('',#731,.T.);
#793=FACE_BOUND('',#732,.T.);
#794=FACE_BOUND('',#733,.T.);
#795=FACE_BOUND('',#734,.T.);
#796=FACE_BOUND('',#735,.T.);
#797=FACE_BOUND('',#736,.T.);
#798=FACE_BOUND('',#737,.T.);
#799=FACE_BOUND('',#738,.T.);
#800=FACE_BOUND('',#739,.T.);
#801=FACE_BOUND('',#740,.T.);
#802=FACE_BOUND('',#741,.T.);
#803=FACE_BOUND('',#742,.T.);
#804=FACE_BOUND('',#743,.T.);
#805=FACE_BOUND('',#744,.T.);
#806=FACE_BOUND('',#745,.T.);
#807=FACE_BOUND('',#746,.T.);
#808=FACE_BOUND('',#747,.T.);
#809=FACE_BOUND('',#748,.T.);
#810=FACE_BOUND('',#749,.T.);
#811=FACE_BOUND('',#750,.T.);
#812=FACE_BOUND('',#751,.T.);
#813=FACE_BOUND('',#752,.T.);
#814=FACE_BOUND('',#753,.T.);
#815=FACE_BOUND('',#754,.T.);
#816=FACE_BOUND('',#755,.T.);
#817=FACE_BOUND('',#756,.T.);
#818=FACE_BOUND('',#757,.T.);
#819=FACE_BOUND('',#758,.T.);
#820=FACE_BOUND('',#759,.T.);
#821=FACE_BOUND('',#760,.T.);
#822=FACE_BOUND('',#761,.T.);
#823=FACE_BOUND('',#762,.T.);
#824=FACE_BOUND('',#763,.T.);
#825=FACE_BOUND('',#764,.T.);
#826=FACE_BOUND('',#765,.T.);
#827=FACE_BOUND('',#766,.T.);
#828=FACE_BOUND('',#767,.T.);
#829=PLANE('',#928);
#830=PLANE('',#929);
#831=PLANE('',#931);
#832=PLANE('',#933);
#833=PLANE('',#934);
#834=PLANE('',#935);
#835=PLANE('',#939);
#836=PLANE('',#943);
#837=PLANE('',#944);
#838=PLANE('',#945);
#839=PLANE('',#946);
#840=PLANE('',#947);
#841=PLANE('',#948);
#842=PLANE('',#949);
#843=PLANE('',#950);
#844=PLANE('',#951);
#845=PLANE('',#952);
#846=PLANE('',#953);
#847=PLANE('',#954);
#848=PLANE('',#955);
#849=PLANE('',#956);
#850=PLANE('',#957);
#851=PLANE('',#958);
#852=PLANE('',#959);
#853=PLANE('',#960);
#854=PLANE('',#961);
#855=PLANE('',#962);
#856=PLANE('',#963);
#857=PLANE('',#964);
#858=PLANE('',#965);
#859=PLANE('',#966);
#860=PLANE('',#967);
#861=PLANE('',#972);
#862=PLANE('',#973);
#863=PLANE('',#974);
#864=PLANE('',#975);
#865=PLANE('',#976);
#866=PLANE('',#977);
#867=PLANE('',#978);
#868=PLANE('',#979);
#869=PLANE('',#980);
#870=ADVANCED_FACE('',(#768),#829,.F.);
#871=ADVANCED_FACE('',(#769,#770),#830,.F.);
#872=ADVANCED_FACE('',(#771,#772,#773),#831,.T.);
#873=ADVANCED_FACE('',(#774),#832,.F.);
#874=ADVANCED_FACE('',(#775),#833,.T.);
#875=ADVANCED_FACE('',(#776,#777,#778,#779,#780),#834,.F.);
#876=ADVANCED_FACE('',(#781,#782,#783,#784,#785),#835,.T.);
#877=ADVANCED_FACE('',(#786),#836,.T.);
#878=ADVANCED_FACE('',(#787),#837,.F.);
#879=ADVANCED_FACE('',(#788),#838,.T.);
#880=ADVANCED_FACE('',(#789),#839,.T.);
#881=ADVANCED_FACE('',(#790),#840,.F.);
#882=ADVANCED_FACE('',(#791),#841,.F.);
#883=ADVANCED_FACE('',(#792),#842,.T.);
#884=ADVANCED_FACE('',(#793),#843,.F.);
#885=ADVANCED_FACE('',(#794),#844,.T.);
#886=ADVANCED_FACE('',(#795),#845,.T.);
#887=ADVANCED_FACE('',(#796),#846,.F.);
#888=ADVANCED_FACE('',(#797),#847,.F.);
#889=ADVANCED_FACE('',(#798),#848,.T.);
#890=ADVANCED_FACE('',(#799),#849,.T.);
#891=ADVANCED_FACE('',(#800),#850,.T.);
#892=ADVANCED_FACE('',(#801),#851,.T.);
#893=ADVANCED_FACE('',(#802),#852,.F.);
#894=ADVANCED_FACE('',(#803),#853,.T.);
#895=ADVANCED_FACE('',(#804),#854,.F.);
#896=ADVANCED_FACE('',(#805),#855,.F.);
#897=ADVANCED_FACE('',(#806),#856,.T.);
#898=ADVANCED_FACE('',(#807),#857,.T.);
#899=ADVANCED_FACE('',(#808),#858,.F.);
#900=ADVANCED_FACE('',(#809),#859,.F.);
#901=ADVANCED_FACE('',(#810),#860,.T.);
#902=ADVANCED_FACE('',(#811,#812),#12,.F.);
#903=ADVANCED_FACE('',(#813,#814),#13,.F.);
#904=ADVANCED_FACE('',(#815,#816),#14,.F.);
#905=ADVANCED_FACE('',(#817,#818),#15,.F.);
#906=ADVANCED_FACE('',(#819),#861,.F.);
#907=ADVANCED_FACE('',(#820),#862,.T.);
#908=ADVANCED_FACE('',(#821),#863,.F.);
#909=ADVANCED_FACE('',(#822),#864,.T.);
#910=ADVANCED_FACE('',(#823),#865,.F.);
#911=ADVANCED_FACE('',(#824),#866,.F.);
#912=ADVANCED_FACE('',(#825),#867,.F.);
#913=ADVANCED_FACE('',(#826,#827),#868,.T.);
#914=ADVANCED_FACE('',(#828),#869,.T.);
#915=CLOSED_SHELL('',(#870,#871,#872,#873,#874,#875,#876,#877,#878,#879,
#880,#881,#882,#883,#884,#885,#886,#887,#888,#889,#890,#891,#892,#893,#894,
#895,#896,#897,#898,#899,#900,#901,#902,#903,#904,#905,#906,#907,#908,#909,
#910,#911,#912,#913,#914));
#916=STYLED_ITEM('',(#917),#924);
#917=PRESENTATION_STYLE_ASSIGNMENT((#918));
#918=SURFACE_STYLE_USAGE(.BOTH.,#919);
#919=SURFACE_SIDE_STYLE('',(#920));
#920=SURFACE_STYLE_FILL_AREA(#921);
#921=FILL_AREA_STYLE('',(#922));
#922=FILL_AREA_STYLE_COLOUR('',#923);
#923=COLOUR_RGB('',0.615686274509804,0.811764705882353,0.929411764705882);
#924=MANIFOLD_SOLID_BREP('Part 1',#915);
#925=SHAPE_DEFINITION_REPRESENTATION(#1463,#926);
#926=SHAPE_REPRESENTATION('Part 1',(#927),#1458);
#927=AXIS2_PLACEMENT_3D('',#1204,#981,#982);
#928=AXIS2_PLACEMENT_3D('',#1205,#983,#984);
#929=AXIS2_PLACEMENT_3D('',#1214,#989,#990);
#930=AXIS2_PLACEMENT_3D('',#1215,#991,#992);
#931=AXIS2_PLACEMENT_3D('',#1262,#1016,#1017);
#932=AXIS2_PLACEMENT_3D('',#1263,#1018,#1019);
#933=AXIS2_PLACEMENT_3D('',#1285,#1030,#1031);
#934=AXIS2_PLACEMENT_3D('',#1291,#1035,#1036);
#935=AXIS2_PLACEMENT_3D('',#1314,#1049,#1050);
#936=AXIS2_PLACEMENT_3D('',#1315,#1051,#1052);
#937=AXIS2_PLACEMENT_3D('',#1317,#1053,#1054);
#938=AXIS2_PLACEMENT_3D('',#1319,#1055,#1056);
#939=AXIS2_PLACEMENT_3D('',#1345,#1069,#1070);
#940=AXIS2_PLACEMENT_3D('',#1346,#1071,#1072);
#941=AXIS2_PLACEMENT_3D('',#1348,#1073,#1074);
#942=AXIS2_PLACEMENT_3D('',#1350,#1075,#1076);
#943=AXIS2_PLACEMENT_3D('',#1368,#1085,#1086);
#944=AXIS2_PLACEMENT_3D('',#1371,#1089,#1090);
#945=AXIS2_PLACEMENT_3D('',#1374,#1093,#1094);
#946=AXIS2_PLACEMENT_3D('',#1377,#1097,#1098);
#947=AXIS2_PLACEMENT_3D('',#1379,#1100,#1101);
#948=AXIS2_PLACEMENT_3D('',#1383,#1105,#1106);
#949=AXIS2_PLACEMENT_3D('',#1385,#1108,#1109);
#950=AXIS2_PLACEMENT_3D('',#1387,#1111,#1112);
#951=AXIS2_PLACEMENT_3D('',#1388,#1113,#1114);
#952=AXIS2_PLACEMENT_3D('',#1390,#1116,#1117);
#953=AXIS2_PLACEMENT_3D('',#1392,#1119,#1120);
#954=AXIS2_PLACEMENT_3D('',#1394,#1122,#1123);
#955=AXIS2_PLACEMENT_3D('',#1396,#1125,#1126);
#956=AXIS2_PLACEMENT_3D('',#1398,#1128,#1129);
#957=AXIS2_PLACEMENT_3D('',#1400,#1131,#1132);
#958=AXIS2_PLACEMENT_3D('',#1402,#1134,#1135);
#959=AXIS2_PLACEMENT_3D('',#1404,#1137,#1138);
#960=AXIS2_PLACEMENT_3D('',#1406,#1140,#1141);
#961=AXIS2_PLACEMENT_3D('',#1407,#1142,#1143);
#962=AXIS2_PLACEMENT_3D('',#1409,#1145,#1146);
#963=AXIS2_PLACEMENT_3D('',#1411,#1148,#1149);
#964=AXIS2_PLACEMENT_3D('',#1412,#1150,#1151);
#965=AXIS2_PLACEMENT_3D('',#1415,#1154,#1155);
#966=AXIS2_PLACEMENT_3D('',#1417,#1157,#1158);
#967=AXIS2_PLACEMENT_3D('',#1419,#1160,#1161);
#968=AXIS2_PLACEMENT_3D('',#1420,#1162,#1163);
#969=AXIS2_PLACEMENT_3D('',#1421,#1164,#1165);
#970=AXIS2_PLACEMENT_3D('',#1422,#1166,#1167);
#971=AXIS2_PLACEMENT_3D('',#1423,#1168,#1169);
#972=AXIS2_PLACEMENT_3D('',#1424,#1170,#1171);
#973=AXIS2_PLACEMENT_3D('',#1430,#1175,#1176);
#974=AXIS2_PLACEMENT_3D('',#1434,#1179,#1180);
#975=AXIS2_PLACEMENT_3D('',#1438,#1183,#1184);
#976=AXIS2_PLACEMENT_3D('',#1440,#1186,#1187);
#977=AXIS2_PLACEMENT_3D('',#1446,#1191,#1192);
#978=AXIS2_PLACEMENT_3D('',#1450,#1195,#1196);
#979=AXIS2_PLACEMENT_3D('',#1454,#1199,#1200);
#980=AXIS2_PLACEMENT_3D('',#1456,#1202,#1203);
#981=DIRECTION('',(0.,0.,1.));
#982=DIRECTION('',(1.,0.,0.));
#983=DIRECTION('',(1.,-1.61369625672261E-16,0.));
#984=DIRECTION('',(1.61369625672261E-16,1.,0.));
#985=DIRECTION('',(0.,0.,1.));
#986=DIRECTION('',(1.61369625672261E-16,1.,0.));
#987=DIRECTION('',(0.,0.,1.));
#988=DIRECTION('',(1.61369625672261E-16,1.,0.));
#989=DIRECTION('',(0.,0.,1.));
#990=DIRECTION('',(1.,0.,0.));
#991=DIRECTION('',(0.,0.,1.));
#992=DIRECTION('',(1.,0.,0.));
#993=DIRECTION('',(1.,0.,0.));
#994=DIRECTION('',(8.13151629364131E-17,1.,0.));
#995=DIRECTION('',(-1.,1.29408688994913E-16,0.));
#996=DIRECTION('',(-1.,0.,0.));
#997=DIRECTION('',(0.,-1.,0.));
#998=DIRECTION('',(1.,0.,0.));
#999=DIRECTION('',(0.,1.,0.));
#1000=DIRECTION('',(1.,0.,0.));
#1001=DIRECTION('',(0.,1.,0.));
#1002=DIRECTION('',(1.,0.,0.));
#1003=DIRECTION('',(0.,-1.,0.));
#1004=DIRECTION('',(-1.,0.,0.));
#1005=DIRECTION('',(0.,1.,0.));
#1006=DIRECTION('',(-1.,0.,0.));
#1007=DIRECTION('',(0.,-1.,0.));
#1008=DIRECTION('',(-1.,0.,0.));
#1009=DIRECTION('',(1.54197642309049E-16,1.,0.));
#1010=DIRECTION('',(-1.,0.,0.));
#1011=DIRECTION('',(0.,-1.,0.));
#1012=DIRECTION('',(1.,0.,0.));
#1013=DIRECTION('',(-2.31296463463574E-16,-1.,0.));
#1014=DIRECTION('',(-1.,1.23908819712629E-16,0.));
#1015=DIRECTION('',(1.61369625672261E-16,1.,0.));
#1016=DIRECTION('',(0.,0.,1.));
#1017=DIRECTION('',(1.,0.,0.));
#1018=DIRECTION('',(0.,0.,1.));
#1019=DIRECTION('',(1.,0.,0.));
#1020=DIRECTION('',(-1.,0.,0.));
#1021=DIRECTION('',(0.,-1.,0.));
#1022=DIRECTION('',(1.,0.,0.));
#1023=DIRECTION('',(0.,-1.,0.));
#1024=DIRECTION('',(1.,0.,0.));
#1025=DIRECTION('',(0.,-1.,0.));
#1026=DIRECTION('',(6.63797248460513E-17,-1.,0.));
#1027=DIRECTION('',(1.,0.,0.));
#1028=DIRECTION('',(0.,-1.,0.));
#1029=DIRECTION('',(1.,0.,0.));
#1030=DIRECTION('',(1.,-1.61369625672261E-16,0.));
#1031=DIRECTION('',(1.61369625672261E-16,1.,0.));
#1032=DIRECTION('',(1.61369625672261E-16,1.,0.));
#1033=DIRECTION('',(0.,0.,1.));
#1034=DIRECTION('',(0.,0.,1.));
#1035=DIRECTION('',(0.,0.,-1.));
#1036=DIRECTION('',(1.,0.,0.));
#1037=DIRECTION('',(-1.,0.,0.));
#1038=DIRECTION('',(0.,1.,0.));
#1039=DIRECTION('',(-1.,0.,0.));
#1040=DIRECTION('',(-1.,1.23908819712629E-16,0.));
#1041=DIRECTION('',(-2.31296463463574E-16,-1.,0.));
#1042=DIRECTION('',(1.,0.,0.));
#1043=DIRECTION('',(0.,-1.,0.));
#1044=DIRECTION('',(-1.,0.,0.));
#1045=DIRECTION('',(1.54197642309049E-16,1.,0.));
#1046=DIRECTION('',(-1.,0.,0.));
#1047=DIRECTION('',(0.,-1.,0.));
#1048=DIRECTION('',(-1.,0.,0.));
#1049=DIRECTION('',(0.,0.,1.));
#1050=DIRECTION('',(1.,0.,0.));
#1051=DIRECTION('',(0.,0.,1.));
#1052=DIRECTION('',(1.,0.,0.));
#1053=DIRECTION('',(0.,0.,1.));
#1054=DIRECTION('',(1.,0.,0.));
#1055=DIRECTION('',(0.,0.,1.));
#1056=DIRECTION('',(1.,0.,0.));
#1057=DIRECTION('',(-1.,0.,0.));
#1058=DIRECTION('',(0.,1.,0.));
#1059=DIRECTION('',(1.,0.,0.));
#1060=DIRECTION('',(0.,1.,0.));
#1061=DIRECTION('',(-1.,0.,0.));
#1062=DIRECTION('',(0.,-1.,0.));
#1063=DIRECTION('',(-1.,0.,0.));
#1064=DIRECTION('',(0.,-1.,0.));
#1065=DIRECTION('',(1.,0.,0.));
#1066=DIRECTION('',(0.,-1.,0.));
#1067=DIRECTION('',(1.,0.,0.));
#1068=DIRECTION('',(0.,-1.,0.));
#1069=DIRECTION('',(0.,0.,1.));
#1070=DIRECTION('',(1.,0.,0.));
#1071=DIRECTION('',(0.,0.,1.));
#1072=DIRECTION('',(1.,0.,0.));
#1073=DIRECTION('',(0.,0.,1.));
#1074=DIRECTION('',(1.,0.,0.));
#1075=DIRECTION('',(0.,0.,1.));
#1076=DIRECTION('',(1.,0.,0.));
#1077=DIRECTION('',(-1.,0.,0.));
#1078=DIRECTION('',(0.,1.,0.));
#1079=DIRECTION('',(-1.,0.,0.));
#1080=DIRECTION('',(0.,-1.,0.));
#1081=DIRECTION('',(0.,-1.,0.));
#1082=DIRECTION('',(1.,0.,0.));
#1083=DIRECTION('',(0.,-1.,0.));
#1084=DIRECTION('',(1.,0.,0.));
#1085=DIRECTION('',(0.,0.554700196225229,-0.832050294337844));
#1086=DIRECTION('',(0.,0.832050294337844,0.554700196225229));
#1087=DIRECTION('',(0.,0.832050294337844,0.554700196225229));
#1088=DIRECTION('',(-0.639602149066832,-0.639602149066831,-0.426401432711221));
#1089=DIRECTION('',(-0.554700196225229,0.,0.832050294337844));
#1090=DIRECTION('',(0.832050294337844,0.,0.554700196225229));
#1091=DIRECTION('',(0.,-1.,0.));
#1092=DIRECTION('',(-0.832050294337844,0.,-0.554700196225229));
#1093=DIRECTION('',(0.,1.,0.));
#1094=DIRECTION('',(0.,0.,1.));
#1095=DIRECTION('',(0.,0.,-1.));
#1096=DIRECTION('',(0.,0.,-1.));
#1097=DIRECTION('',(1.,0.,0.));
#1098=DIRECTION('',(0.,0.,-1.));
#1099=DIRECTION('',(0.,0.,-1.));
#1100=DIRECTION('',(1.,0.,0.));
#1101=DIRECTION('',(0.,0.,-1.));
#1102=DIRECTION('',(0.,-0.832050294337844,-0.554700196225229));
#1103=DIRECTION('',(0.,0.,-1.));
#1104=DIRECTION('',(0.,0.832050294337844,0.554700196225228));
#1105=DIRECTION('',(0.,1.,0.));
#1106=DIRECTION('',(0.,0.,1.));
#1107=DIRECTION('',(0.832050294337843,0.,0.55470019622523));
#1108=DIRECTION('',(0.,-0.554700196225228,0.832050294337844));
#1109=DIRECTION('',(0.,-0.832050294337844,-0.554700196225228));
#1110=DIRECTION('',(-0.63960214906683,-0.639602149066832,-0.426401432711221));
#1111=DIRECTION('',(0.55470019622523,0.,-0.832050294337843));
#1112=DIRECTION('',(-0.832050294337843,0.,-0.55470019622523));
#1113=DIRECTION('',(0.,0.554700196225229,-0.832050294337844));
#1114=DIRECTION('',(0.,0.832050294337844,0.554700196225229));
#1115=DIRECTION('',(0.,0.832050294337844,0.554700196225229));
#1116=DIRECTION('',(0.,1.,0.));
#1117=DIRECTION('',(0.,0.,1.));
#1118=DIRECTION('',(0.,0.,1.));
#1119=DIRECTION('',(1.23908819712629E-16,1.,0.));
#1120=DIRECTION('',(-1.,1.23908819712629E-16,0.));
#1121=DIRECTION('',(0.,0.,1.));
#1122=DIRECTION('',(-1.,2.31296463463574E-16,0.));
#1123=DIRECTION('',(-2.31296463463574E-16,-1.,0.));
#1124=DIRECTION('',(0.,0.,1.));
#1125=DIRECTION('',(0.,-1.,0.));
#1126=DIRECTION('',(0.,0.,-1.));
#1127=DIRECTION('',(0.,0.,1.));
#1128=DIRECTION('',(-1.,0.,0.));
#1129=DIRECTION('',(0.,0.,1.));
#1130=DIRECTION('',(0.,0.,1.));
#1131=DIRECTION('',(0.,1.,0.));
#1132=DIRECTION('',(0.,0.,1.));
#1133=DIRECTION('',(0.,0.,1.));
#1134=DIRECTION('',(1.,-1.54197642309049E-16,0.));
#1135=DIRECTION('',(1.54197642309049E-16,1.,0.));
#1136=DIRECTION('',(0.,0.,1.));
#1137=DIRECTION('',(0.,1.,0.));
#1138=DIRECTION('',(0.,0.,1.));
#1139=DIRECTION('',(0.,0.,1.));
#1140=DIRECTION('',(-1.,0.,0.));
#1141=DIRECTION('',(0.,0.,1.));
#1142=DIRECTION('',(1.,0.,0.));
#1143=DIRECTION('',(0.,0.,-1.));
#1144=DIRECTION('',(0.,0.,1.));
#1145=DIRECTION('',(0.,-1.,0.));
#1146=DIRECTION('',(0.,0.,-1.));
#1147=DIRECTION('',(0.,0.,1.));
#1148=DIRECTION('',(1.,0.,0.));
#1149=DIRECTION('',(0.,0.,-1.));
#1150=DIRECTION('',(0.,-1.,0.));
#1151=DIRECTION('',(0.,0.,-1.));
#1152=DIRECTION('',(0.,0.,1.));
#1153=DIRECTION('',(0.,0.,1.));
#1154=DIRECTION('',(-1.,0.,0.));
#1155=DIRECTION('',(0.,0.,1.));
#1156=DIRECTION('',(0.,0.,1.));
#1157=DIRECTION('',(0.,-1.,0.));
#1158=DIRECTION('',(0.,0.,-1.));
#1159=DIRECTION('',(0.,0.,1.));
#1160=DIRECTION('',(-1.,0.,0.));
#1161=DIRECTION('',(0.,0.,1.));
#1162=DIRECTION('',(0.,0.,1.));
#1163=DIRECTION('',(1.,0.,0.));
#1164=DIRECTION('',(0.,0.,1.));
#1165=DIRECTION('',(1.,0.,0.));
#1166=DIRECTION('',(0.,0.,1.));
#1167=DIRECTION('',(1.,0.,0.));
#1168=DIRECTION('',(0.,0.,1.));
#1169=DIRECTION('',(1.,0.,0.));
#1170=DIRECTION('',(-1.,-6.63797248460513E-17,0.));
#1171=DIRECTION('',(6.63797248460513E-17,-1.,0.));
#1172=DIRECTION('',(0.,0.,1.));
#1173=DIRECTION('',(0.,0.,1.));
#1174=DIRECTION('',(6.63797248460513E-17,-1.,0.));
#1175=DIRECTION('',(0.,-1.,0.));
#1176=DIRECTION('',(0.,0.,-1.));
#1177=DIRECTION('',(1.,0.,0.));
#1178=DIRECTION('',(0.,0.,1.));
#1179=DIRECTION('',(0.,-1.,0.));
#1180=DIRECTION('',(0.,0.,-1.));
#1181=DIRECTION('',(0.,0.,1.));
#1182=DIRECTION('',(1.,0.,0.));
#1183=DIRECTION('',(-1.,0.,0.));
#1184=DIRECTION('',(0.,0.,1.));
#1185=DIRECTION('',(0.,1.,0.));
#1186=DIRECTION('',(1.29408688994913E-16,1.,0.));
#1187=DIRECTION('',(-1.,1.29408688994913E-16,0.));
#1188=DIRECTION('',(0.,0.,1.));
#1189=DIRECTION('',(-1.,1.29408688994913E-16,0.));
#1190=DIRECTION('',(0.,0.,1.));
#1191=DIRECTION('',(1.,-8.13151629364131E-17,0.));
#1192=DIRECTION('',(8.13151629364131E-17,1.,0.));
#1193=DIRECTION('',(0.,0.,1.));
#1194=DIRECTION('',(8.13151629364131E-17,1.,0.));
#1195=DIRECTION('',(0.,-1.,0.));
#1196=DIRECTION('',(0.,0.,-1.));
#1197=DIRECTION('',(0.,0.,1.));
#1198=DIRECTION('',(1.,0.,0.));
#1199=DIRECTION('',(0.,0.,-1.));
#1200=DIRECTION('',(1.,0.,0.));
#1201=DIRECTION('',(0.,1.,0.));
#1202=DIRECTION('',(1.,0.,0.));
#1203=DIRECTION('',(0.,0.,-1.));
#1204=CARTESIAN_POINT('',(0.,0.,0.));
#1205=CARTESIAN_POINT('',(0.028,6.93889390390723E-18,0.014));
#1206=CARTESIAN_POINT('',(0.028,0.00137499999999999,0.0125));
#1207=CARTESIAN_POINT('',(0.028,0.00137499999999999,0.014));
#1208=CARTESIAN_POINT('',(0.028,0.00137499999999999,0.016));
#1209=CARTESIAN_POINT('',(0.028,6.93889390390723E-18,0.014));
#1210=CARTESIAN_POINT('',(0.028,-0.043,0.014));
#1211=CARTESIAN_POINT('',(0.028,-0.043,0.014));
#1212=CARTESIAN_POINT('',(0.028,-0.043,0.016));
#1213=CARTESIAN_POINT('',(0.028,6.93889390390723E-18,0.016));
#1214=CARTESIAN_POINT('',(0.02055,-0.0292,0.016));
#1215=CARTESIAN_POINT('',(0.02,-0.0355,0.016));
#1216=CARTESIAN_POINT('',(0.02325,-0.0355,0.016));
#1217=CARTESIAN_POINT('',(0.014095,0.022975,0.016));
#1218=CARTESIAN_POINT('',(0.000190000000000014,0.022975,0.016));
#1219=CARTESIAN_POINT('',(0.028,0.022975,0.016));
#1220=CARTESIAN_POINT('',(0.000190000000000014,0.022475,0.016));
#1221=CARTESIAN_POINT('',(0.000190000000000009,0.001375,0.016));
#1222=CARTESIAN_POINT('',(0.014595,0.001375,0.016));
#1223=CARTESIAN_POINT('',(0.01945,-0.043,0.016));
#1224=CARTESIAN_POINT('',(0.0109,-0.043,0.016));
#1225=CARTESIAN_POINT('',(0.0109,-0.0292,0.016));
#1226=CARTESIAN_POINT('',(0.0109,-0.0292,0.016));
#1227=CARTESIAN_POINT('',(-3.46944695195361E-18,-0.0292,0.016));
#1228=CARTESIAN_POINT('',(-0.028,-0.0292,0.016));
#1229=CARTESIAN_POINT('',(-0.028,-0.0282,0.016));
#1230=CARTESIAN_POINT('',(-0.028,-0.0272,0.016));
#1231=CARTESIAN_POINT('',(-0.029,-0.0272,0.016));
#1232=CARTESIAN_POINT('',(-0.03,-0.0272,0.016));
#1233=CARTESIAN_POINT('',(-0.03,-0.0282,0.016));
#1234=CARTESIAN_POINT('',(-0.03,-0.0292,0.016));
#1235=CARTESIAN_POINT('',(-3.46944695195361E-18,-0.0292,0.016));
#1236=CARTESIAN_POINT('',(-0.0322,-0.0292,0.016));
#1237=CARTESIAN_POINT('',(-0.0322,0.0702,0.016));
#1238=CARTESIAN_POINT('',(-0.0322,0.0472,0.016));
#1239=CARTESIAN_POINT('',(0.,0.0472,0.016));
#1240=CARTESIAN_POINT('',(0.0322,0.0472,0.016));
#1241=CARTESIAN_POINT('',(0.0322,0.,0.016));
#1242=CARTESIAN_POINT('',(0.0322,-0.0472,0.016));
#1243=CARTESIAN_POINT('',(0.,-0.0472,0.016));
#1244=CARTESIAN_POINT('',(0.0109,-0.0472,0.016));
#1245=CARTESIAN_POINT('',(0.0109,-0.0292,0.016));
#1246=CARTESIAN_POINT('',(0.0109,-0.045,0.016));
#1247=CARTESIAN_POINT('',(0.01945,-0.045,0.016));
#1248=CARTESIAN_POINT('',(0.03,-0.045,0.016));
#1249=CARTESIAN_POINT('',(0.03,6.93889390390723E-18,0.016));
#1250=CARTESIAN_POINT('',(0.03,0.045,0.016));
#1251=CARTESIAN_POINT('',(0.029,0.045,0.016));
#1252=CARTESIAN_POINT('',(-0.03,0.045,0.016));
#1253=CARTESIAN_POINT('',(-0.03,0.0355,0.016));
#1254=CARTESIAN_POINT('',(-0.03,0.028,0.016));
#1255=CARTESIAN_POINT('',(-0.029,0.028,0.016));
#1256=CARTESIAN_POINT('',(-0.028,0.028,0.016));
#1257=CARTESIAN_POINT('',(-0.028,0.0355,0.016));
#1258=CARTESIAN_POINT('',(-0.028,0.043,0.016));
#1259=CARTESIAN_POINT('',(3.46944695195361E-18,0.043,0.016));
#1260=CARTESIAN_POINT('',(0.028,0.043,0.016));
#1261=CARTESIAN_POINT('',(0.028,6.93889390390723E-18,0.016));
#1262=CARTESIAN_POINT('',(0.,0.,0.018));
#1263=CARTESIAN_POINT('',(0.02,-0.0355,0.018));
#1264=CARTESIAN_POINT('',(0.02325,-0.0355,0.018));
#1265=CARTESIAN_POINT('',(-0.0302,-0.0292,0.018));
#1266=CARTESIAN_POINT('',(0.0109,-0.0292,0.018));
#1267=CARTESIAN_POINT('',(-0.0322,-0.0292,0.018));
#1268=CARTESIAN_POINT('',(0.0109,-0.0452,0.018));
#1269=CARTESIAN_POINT('',(0.0109,-0.0472,0.018));
#1270=CARTESIAN_POINT('',(0.,-0.0472,0.018));
#1271=CARTESIAN_POINT('',(0.0322,-0.0472,0.018));
#1272=CARTESIAN_POINT('',(0.0322,0.,0.018));
#1273=CARTESIAN_POINT('',(0.0322,0.0472,0.018));
#1274=CARTESIAN_POINT('',(0.,0.0472,0.018));
#1275=CARTESIAN_POINT('',(-0.0322,0.0472,0.018));
#1276=CARTESIAN_POINT('',(-0.0322,0.,0.018));
#1277=CARTESIAN_POINT('',(0.00119,0.012175,0.018));
#1278=CARTESIAN_POINT('',(0.00119,0.021975,0.018));
#1279=CARTESIAN_POINT('',(0.00119,0.002375,0.018));
#1280=CARTESIAN_POINT('',(0.01473,0.021975,0.018));
#1281=CARTESIAN_POINT('',(0.02827,0.021975,0.018));
#1282=CARTESIAN_POINT('',(0.02827,0.012175,0.018));
#1283=CARTESIAN_POINT('',(0.02827,0.002375,0.018));
#1284=CARTESIAN_POINT('',(0.01473,0.002375,0.018));
#1285=CARTESIAN_POINT('',(0.028,6.93889390390723E-18,0.014));
#1286=CARTESIAN_POINT('',(0.028,6.93889390390723E-18,0.014));
#1287=CARTESIAN_POINT('',(0.028,0.022975,0.014));
#1288=CARTESIAN_POINT('',(0.028,0.043,0.014));
#1289=CARTESIAN_POINT('',(0.028,0.022975,0.0125));
#1290=CARTESIAN_POINT('',(0.028,0.043,0.014));
#1291=CARTESIAN_POINT('',(0.,0.,0.014));
#1292=CARTESIAN_POINT('',(0.028135,0.00137499999999999,0.014));
#1293=CARTESIAN_POINT('',(0.02927,0.00137499999999999,0.014));
#1294=CARTESIAN_POINT('',(0.02927,0.012175,0.014));
#1295=CARTESIAN_POINT('',(0.02927,0.022975,0.014));
#1296=CARTESIAN_POINT('',(0.028135,0.022975,0.014));
#1297=CARTESIAN_POINT('',(3.46944695195361E-18,0.043,0.014));
#1298=CARTESIAN_POINT('',(-0.028,0.043,0.014));
#1299=CARTESIAN_POINT('',(-0.028,0.0355,0.014));
#1300=CARTESIAN_POINT('',(-0.028,0.028,0.014));
#1301=CARTESIAN_POINT('',(-0.029,0.028,0.014));
#1302=CARTESIAN_POINT('',(-0.03,0.028,0.014));
#1303=CARTESIAN_POINT('',(-0.03,0.0355,0.014));
#1304=CARTESIAN_POINT('',(-0.03,0.045,0.014));
#1305=CARTESIAN_POINT('',(0.029,0.045,0.014));
#1306=CARTESIAN_POINT('',(0.03,0.045,0.014));
#1307=CARTESIAN_POINT('',(0.03,6.93889390390723E-18,0.014));
#1308=CARTESIAN_POINT('',(0.03,-0.045,0.014));
#1309=CARTESIAN_POINT('',(0.01945,-0.045,0.014));
#1310=CARTESIAN_POINT('',(0.0109,-0.045,0.014));
#1311=CARTESIAN_POINT('',(0.0109,-0.0292,0.014));
#1312=CARTESIAN_POINT('',(0.0109,-0.043,0.014));
#1313=CARTESIAN_POINT('',(0.01945,-0.043,0.014));
#1314=CARTESIAN_POINT('',(-0.01115,-0.0292,0.014));
#1315=CARTESIAN_POINT('',(-0.00254,-0.03719,0.014));
#1316=CARTESIAN_POINT('',(-0.00054,-0.03719,0.014));
#1317=CARTESIAN_POINT('',(-0.0127,-0.03719,0.014));
#1318=CARTESIAN_POINT('',(-0.0107,-0.03719,0.014));
#1319=CARTESIAN_POINT('',(-0.02286,-0.03719,0.014));
#1320=CARTESIAN_POINT('',(-0.02086,-0.03719,0.014));
#1321=CARTESIAN_POINT('',(0.0115,-0.0322,0.014));
#1322=CARTESIAN_POINT('',(-0.03,-0.0322,0.014));
#1323=CARTESIAN_POINT('',(-0.0322,-0.0322,0.014));
#1324=CARTESIAN_POINT('',(-0.03,-0.0282,0.014));
#1325=CARTESIAN_POINT('',(-0.03,-0.0272,0.014));
#1326=CARTESIAN_POINT('',(-0.029,-0.0272,0.014));
#1327=CARTESIAN_POINT('',(-0.028,-0.0272,0.014));
#1328=CARTESIAN_POINT('',(-0.028,-0.0282,0.014));
#1329=CARTESIAN_POINT('',(-0.028,-0.0322,0.014));
#1330=CARTESIAN_POINT('',(0.0115,-0.0322,0.014));
#1331=CARTESIAN_POINT('',(0.0079,-0.0322,0.014));
#1332=CARTESIAN_POINT('',(0.0079,-0.0292,0.014));
#1333=CARTESIAN_POINT('',(0.0079,-0.0472,0.014));
#1334=CARTESIAN_POINT('',(0.,-0.0472,0.014));
#1335=CARTESIAN_POINT('',(-0.0322,-0.0472,0.014));
#1336=CARTESIAN_POINT('',(-0.0322,0.,0.014));
#1337=CARTESIAN_POINT('',(-0.01115,-0.03265,0.014));
#1338=CARTESIAN_POINT('',(0.00415,-0.03265,0.014));
#1339=CARTESIAN_POINT('',(0.00785,-0.03265,0.014));
#1340=CARTESIAN_POINT('',(0.00415,-0.0292,0.014));
#1341=CARTESIAN_POINT('',(0.00415,-0.04135,0.014));
#1342=CARTESIAN_POINT('',(-0.01115,-0.04135,0.014));
#1343=CARTESIAN_POINT('',(0.00785,-0.04135,0.014));
#1344=CARTESIAN_POINT('',(0.00785,-0.0292,0.014));
#1345=CARTESIAN_POINT('',(-0.0302,-0.0397,0.016));
#1346=CARTESIAN_POINT('',(-0.00254,-0.03719,0.016));
#1347=CARTESIAN_POINT('',(-0.00054,-0.03719,0.016));
#1348=CARTESIAN_POINT('',(-0.0127,-0.03719,0.016));
#1349=CARTESIAN_POINT('',(-0.0107,-0.03719,0.016));
#1350=CARTESIAN_POINT('',(-0.02286,-0.03719,0.016));
#1351=CARTESIAN_POINT('',(-0.02086,-0.03719,0.016));
#1352=CARTESIAN_POINT('',(-0.0302,-0.0322,0.016));
#1353=CARTESIAN_POINT('',(0.0079,-0.0322,0.016));
#1354=CARTESIAN_POINT('',(-0.0322,-0.0322,0.016));
#1355=CARTESIAN_POINT('',(-0.0322,-0.0397,0.016));
#1356=CARTESIAN_POINT('',(-0.0322,-0.0472,0.016));
#1357=CARTESIAN_POINT('',(-0.0302,-0.0472,0.016));
#1358=CARTESIAN_POINT('',(0.0079,-0.0472,0.016));
#1359=CARTESIAN_POINT('',(0.0079,-0.0452,0.016));
#1360=CARTESIAN_POINT('',(0.00415,-0.037,0.016));
#1361=CARTESIAN_POINT('',(0.00415,-0.03265,0.016));
#1362=CARTESIAN_POINT('',(0.00415,-0.04135,0.016));
#1363=CARTESIAN_POINT('',(0.006,-0.03265,0.016));
#1364=CARTESIAN_POINT('',(0.00785,-0.03265,0.016));
#1365=CARTESIAN_POINT('',(0.00785,-0.037,0.016));
#1366=CARTESIAN_POINT('',(0.00785,-0.04135,0.016));
#1367=CARTESIAN_POINT('',(0.006,-0.04135,0.016));
#1368=CARTESIAN_POINT('',(0.0115,-0.0307,0.015));
#1369=CARTESIAN_POINT('',(-0.028,-0.0307,0.015));
#1370=CARTESIAN_POINT('',(0.0100136363636364,-0.0300863636363637,0.0154090909090909));
#1371=CARTESIAN_POINT('',(0.0094,-0.0292,0.015));
#1372=CARTESIAN_POINT('',(0.0109,-0.0292,0.016));
#1373=CARTESIAN_POINT('',(0.00427692307692307,-0.0472,0.0115846153846154));
#1374=CARTESIAN_POINT('',(0.,0.0472,0.018));
#1375=CARTESIAN_POINT('',(0.0322,0.0472,0.018));
#1376=CARTESIAN_POINT('',(-0.0322,0.0472,0.018));
#1377=CARTESIAN_POINT('',(0.0322,0.,0.018));
#1378=CARTESIAN_POINT('',(0.0322,-0.0472,0.018));
#1379=CARTESIAN_POINT('',(-0.0322,0.,0.018));
#1380=CARTESIAN_POINT('',(-0.0322,-0.0307,0.015));
#1381=CARTESIAN_POINT('',(-0.0322,-0.0472,0.018));
#1382=CARTESIAN_POINT('',(-0.0322,-0.0307,0.017));
#1383=CARTESIAN_POINT('',(0.,-0.0472,0.018));
#1384=CARTESIAN_POINT('',(0.0094,-0.0472,0.017));
#1385=CARTESIAN_POINT('',(-0.0302,-0.0307,0.017));
#1386=CARTESIAN_POINT('',(0.00346818181818182,-0.0366318181818182,0.0130454545454545));
#1387=CARTESIAN_POINT('',(0.0094,-0.0452,0.017));
#1388=CARTESIAN_POINT('',(0.0115,-0.0307,0.015));
#1389=CARTESIAN_POINT('',(-0.03,-0.0307,0.015));
#1390=CARTESIAN_POINT('',(0.01945,-0.043,0.014));
#1391=CARTESIAN_POINT('',(0.0109,-0.043,0.014));
#1392=CARTESIAN_POINT('',(3.46944695195361E-18,0.043,0.014));
#1393=CARTESIAN_POINT('',(-0.028,0.043,0.014));
#1394=CARTESIAN_POINT('',(-0.028,0.0355,0.014));
#1395=CARTESIAN_POINT('',(-0.028,0.028,0.014));
#1396=CARTESIAN_POINT('',(-0.029,0.028,0.014));
#1397=CARTESIAN_POINT('',(-0.03,0.028,0.014));
#1398=CARTESIAN_POINT('',(-0.03,0.0355,0.014));
#1399=CARTESIAN_POINT('',(-0.03,0.045,0.014));
#1400=CARTESIAN_POINT('',(0.029,0.045,0.014));
#1401=CARTESIAN_POINT('',(0.03,0.045,0.014));
#1402=CARTESIAN_POINT('',(0.03,6.93889390390723E-18,0.014));
#1403=CARTESIAN_POINT('',(0.03,-0.045,0.014));
#1404=CARTESIAN_POINT('',(0.01945,-0.045,0.014));
#1405=CARTESIAN_POINT('',(0.0109,-0.045,0.014));
#1406=CARTESIAN_POINT('',(0.0109,-0.0292,0.014));
#1407=CARTESIAN_POINT('',(-0.03,-0.0282,0.014));
#1408=CARTESIAN_POINT('',(-0.03,-0.0272,0.014));
#1409=CARTESIAN_POINT('',(-0.029,-0.0272,0.014));
#1410=CARTESIAN_POINT('',(-0.028,-0.0272,0.014));
#1411=CARTESIAN_POINT('',(-0.028,-0.0282,0.014));
#1412=CARTESIAN_POINT('',(0.006,-0.03265,-0.009));
#1413=CARTESIAN_POINT('',(0.00785,-0.03265,-0.009));
#1414=CARTESIAN_POINT('',(0.00415,-0.03265,-0.009));
#1415=CARTESIAN_POINT('',(0.00415,-0.037,-0.009));
#1416=CARTESIAN_POINT('',(0.00415,-0.04135,-0.009));
#1417=CARTESIAN_POINT('',(0.006,-0.04135,-0.009));
#1418=CARTESIAN_POINT('',(0.00785,-0.04135,-0.009));
#1419=CARTESIAN_POINT('',(0.00785,-0.037,-0.009));
#1420=CARTESIAN_POINT('',(-0.02286,-0.03719,-0.009));
#1421=CARTESIAN_POINT('',(-0.0127,-0.03719,-0.009));
#1422=CARTESIAN_POINT('',(-0.00254,-0.03719,-0.009));
#1423=CARTESIAN_POINT('',(0.02,-0.0355,-0.007));
#1424=CARTESIAN_POINT('',(0.00119,0.012175,-0.007));
#1425=CARTESIAN_POINT('',(0.00119,0.021975,-0.007));
#1426=CARTESIAN_POINT('',(0.00119,0.021975,0.0125));
#1427=CARTESIAN_POINT('',(0.00119,0.002375,-0.007));
#1428=CARTESIAN_POINT('',(0.00119,0.002375,0.0125));
#1429=CARTESIAN_POINT('',(0.00119,-0.0292,0.0125));
#1430=CARTESIAN_POINT('',(0.01473,0.021975,-0.007));
#1431=CARTESIAN_POINT('',(0.02055,0.021975,0.0125));
#1432=CARTESIAN_POINT('',(0.02827,0.021975,0.0125));
#1433=CARTESIAN_POINT('',(0.02827,0.021975,-0.007));
#1434=CARTESIAN_POINT('',(0.01473,0.002375,-0.007));
#1435=CARTESIAN_POINT('',(0.02827,0.002375,-0.007));
#1436=CARTESIAN_POINT('',(0.02827,0.002375,0.0125));
#1437=CARTESIAN_POINT('',(0.02055,0.002375,0.0125));
#1438=CARTESIAN_POINT('',(0.02827,0.012175,-0.007));
#1439=CARTESIAN_POINT('',(0.02827,0.,0.0125));
#1440=CARTESIAN_POINT('',(0.014595,0.001375,0.0125));
#1441=CARTESIAN_POINT('',(0.000190000000000009,0.001375,0.0125));
#1442=CARTESIAN_POINT('',(0.000190000000000009,0.001375,0.0125));
#1443=CARTESIAN_POINT('',(0.014595,0.001375,0.0125));
#1444=CARTESIAN_POINT('',(0.02927,0.00137499999999999,0.0125));
#1445=CARTESIAN_POINT('',(0.02927,0.00137499999999999,0.0125));
#1446=CARTESIAN_POINT('',(0.000190000000000014,0.022475,0.0125));
#1447=CARTESIAN_POINT('',(0.000190000000000014,0.022975,0.0125));
#1448=CARTESIAN_POINT('',(0.000190000000000014,0.022975,0.0125));
#1449=CARTESIAN_POINT('',(0.000190000000000014,0.022475,0.0125));
#1450=CARTESIAN_POINT('',(0.014095,0.022975,0.0125));
#1451=CARTESIAN_POINT('',(0.02927,0.022975,0.0125));
#1452=CARTESIAN_POINT('',(0.02927,0.022975,0.0125));
#1453=CARTESIAN_POINT('',(0.014095,0.022975,0.0125));
#1454=CARTESIAN_POINT('',(0.,0.,0.0125));
#1455=CARTESIAN_POINT('',(0.02927,0.012175,0.0125));
#1456=CARTESIAN_POINT('',(0.02927,0.012175,0.0125));
#1457=MECHANICAL_DESIGN_GEOMETRIC_PRESENTATION_REPRESENTATION('',(#916),
#1458);
#1458=(
GEOMETRIC_REPRESENTATION_CONTEXT(3)
GLOBAL_UNCERTAINTY_ASSIGNED_CONTEXT((#1459))
GLOBAL_UNIT_ASSIGNED_CONTEXT((#1462,#1461,#1460))
REPRESENTATION_CONTEXT('Part 1','TOP_LEVEL_ASSEMBLY_PART')
);
#1459=UNCERTAINTY_MEASURE_WITH_UNIT(LENGTH_MEASURE(1.E-8),#1462,
'DISTANCE_ACCURACY_VALUE','Maximum Tolerance applied to model');
#1460=(
NAMED_UNIT(*)
SI_UNIT($,.STERADIAN.)
SOLID_ANGLE_UNIT()
);
#1461=(
NAMED_UNIT(*)
PLANE_ANGLE_UNIT()
SI_UNIT($,.RADIAN.)
);
#1462=(
LENGTH_UNIT()
NAMED_UNIT(*)
SI_UNIT($,.METRE.)
);
#1463=PRODUCT_DEFINITION_SHAPE('','',#1464);
#1464=PRODUCT_DEFINITION('','',#1466,#1465);
#1465=PRODUCT_DEFINITION_CONTEXT('',#1472,'design');
#1466=PRODUCT_DEFINITION_FORMATION_WITH_SPECIFIED_SOURCE('','',#1468,
 .NOT_KNOWN.);
#1467=PRODUCT_RELATED_PRODUCT_CATEGORY('','',(#1468));
#1468=PRODUCT('Part 1','Part 1','Part 1',(#1470));
#1469=PRODUCT_CATEGORY('','');
#1470=PRODUCT_CONTEXT('',#1472,'mechanical');
#1471=APPLICATION_PROTOCOL_DEFINITION('international standard',
'ap242_managed_model_based_3d_engineering',2020,#1472);
#1472=APPLICATION_CONTEXT('managed model based 3d engineering');
ENDSEC;
END-ISO-10303-21;
