ISO-10303-21;
HEADER;
/* Generated by software containing ST-Developer
 * from STEP Tools, Inc. (www.steptools.com) 
 */
/* OPTION: using custom renumber hook */

FILE_DESCRIPTION(
/* description */ ('STEP AP242 Edition 2',
'CAx-IF Rec.Pracs.---Representation and Presentation of Product Manufa
cturing Information (PMI)---4.0---2014-10-13',
'CAx-IF Rec.Pracs.---3D Tessellated Geometry---0.4---2014-09-14','2;1',
'CAx-IF Rec.Pracs.---User Defined Attributes---1.5---2016-08-15'),
/* implementation_level */ '2;1');

FILE_NAME(
/* name */ 'Main Case',
/* time_stamp */ '2026-08-16T16:58:00Z',
/* author */ (''),
/* organization */ (''),
/* preprocessor_version */ 'ST-DEVELOPER v20',
/* originating_system */ 'ONSHAPE BY PTC INC, 1.219',
/* authorisation */ '  ');

FILE_SCHEMA (('AP242_MANAGED_MODEL_BASED_3D_ENGINEERING_MIM_LF { 1 0 10303 442 3 1 4 }'));
ENDSEC;

DATA;
#10=SHAPE_REPRESENTATION_RELATIONSHIP('','',#817,#11);
#11=ADVANCED_BREP_SHAPE_REPRESENTATION('',(#815),#1281);
#12=CYLINDRICAL_SURFACE('',#832,0.003);
#13=CIRCLE('',#826,0.003);
#14=CIRCLE('',#828,0.003);
#15=ORIENTED_EDGE('',*,*,#235,.F.);
#16=ORIENTED_EDGE('',*,*,#236,.T.);
#17=ORIENTED_EDGE('',*,*,#237,.T.);
#18=ORIENTED_EDGE('',*,*,#238,.F.);
#19=ORIENTED_EDGE('',*,*,#239,.F.);
#20=ORIENTED_EDGE('',*,*,#240,.T.);
#21=ORIENTED_EDGE('',*,*,#241,.F.);
#22=ORIENTED_EDGE('',*,*,#242,.F.);
#23=ORIENTED_EDGE('',*,*,#243,.T.);
#24=ORIENTED_EDGE('',*,*,#244,.T.);
#25=ORIENTED_EDGE('',*,*,#245,.T.);
#26=ORIENTED_EDGE('',*,*,#246,.T.);
#27=ORIENTED_EDGE('',*,*,#235,.T.);
#28=ORIENTED_EDGE('',*,*,#247,.T.);
#29=ORIENTED_EDGE('',*,*,#248,.F.);
#30=ORIENTED_EDGE('',*,*,#249,.F.);
#31=ORIENTED_EDGE('',*,*,#250,.F.);
#32=ORIENTED_EDGE('',*,*,#251,.T.);
#33=ORIENTED_EDGE('',*,*,#252,.F.);
#34=ORIENTED_EDGE('',*,*,#253,.F.);
#35=ORIENTED_EDGE('',*,*,#254,.F.);
#36=ORIENTED_EDGE('',*,*,#255,.T.);
#37=ORIENTED_EDGE('',*,*,#256,.T.);
#38=ORIENTED_EDGE('',*,*,#257,.T.);
#39=ORIENTED_EDGE('',*,*,#258,.F.);
#40=ORIENTED_EDGE('',*,*,#237,.F.);
#41=ORIENTED_EDGE('',*,*,#259,.F.);
#42=ORIENTED_EDGE('',*,*,#260,.T.);
#43=ORIENTED_EDGE('',*,*,#261,.F.);
#44=ORIENTED_EDGE('',*,*,#262,.F.);
#45=ORIENTED_EDGE('',*,*,#263,.F.);
#46=ORIENTED_EDGE('',*,*,#264,.T.);
#47=ORIENTED_EDGE('',*,*,#265,.T.);
#48=ORIENTED_EDGE('',*,*,#266,.T.);
#49=ORIENTED_EDGE('',*,*,#267,.F.);
#50=ORIENTED_EDGE('',*,*,#268,.T.);
#51=ORIENTED_EDGE('',*,*,#252,.T.);
#52=ORIENTED_EDGE('',*,*,#269,.T.);
#53=ORIENTED_EDGE('',*,*,#270,.T.);
#54=ORIENTED_EDGE('',*,*,#271,.F.);
#55=ORIENTED_EDGE('',*,*,#248,.T.);
#56=ORIENTED_EDGE('',*,*,#272,.F.);
#57=ORIENTED_EDGE('',*,*,#273,.T.);
#58=ORIENTED_EDGE('',*,*,#274,.F.);
#59=ORIENTED_EDGE('',*,*,#275,.F.);
#60=ORIENTED_EDGE('',*,*,#276,.F.);
#61=ORIENTED_EDGE('',*,*,#277,.F.);
#62=ORIENTED_EDGE('',*,*,#278,.T.);
#63=ORIENTED_EDGE('',*,*,#279,.T.);
#64=ORIENTED_EDGE('',*,*,#280,.F.);
#65=ORIENTED_EDGE('',*,*,#281,.F.);
#66=ORIENTED_EDGE('',*,*,#282,.T.);
#67=ORIENTED_EDGE('',*,*,#283,.T.);
#68=ORIENTED_EDGE('',*,*,#259,.T.);
#69=ORIENTED_EDGE('',*,*,#284,.F.);
#70=ORIENTED_EDGE('',*,*,#243,.F.);
#71=ORIENTED_EDGE('',*,*,#285,.T.);
#72=ORIENTED_EDGE('',*,*,#263,.T.);
#73=ORIENTED_EDGE('',*,*,#286,.F.);
#74=ORIENTED_EDGE('',*,*,#287,.T.);
#75=ORIENTED_EDGE('',*,*,#288,.T.);
#76=ORIENTED_EDGE('',*,*,#272,.T.);
#77=ORIENTED_EDGE('',*,*,#247,.F.);
#78=ORIENTED_EDGE('',*,*,#244,.F.);
#79=ORIENTED_EDGE('',*,*,#284,.T.);
#80=ORIENTED_EDGE('',*,*,#276,.T.);
#81=ORIENTED_EDGE('',*,*,#289,.F.);
#82=ORIENTED_EDGE('',*,*,#253,.T.);
#83=ORIENTED_EDGE('',*,*,#268,.F.);
#84=ORIENTED_EDGE('',*,*,#290,.F.);
#85=ORIENTED_EDGE('',*,*,#291,.F.);
#86=ORIENTED_EDGE('',*,*,#292,.T.);
#87=ORIENTED_EDGE('',*,*,#264,.F.);
#88=ORIENTED_EDGE('',*,*,#285,.F.);
#89=ORIENTED_EDGE('',*,*,#242,.T.);
#90=ORIENTED_EDGE('',*,*,#293,.F.);
#91=ORIENTED_EDGE('',*,*,#294,.F.);
#92=ORIENTED_EDGE('',*,*,#295,.T.);
#93=ORIENTED_EDGE('',*,*,#296,.T.);
#94=ORIENTED_EDGE('',*,*,#297,.F.);
#95=ORIENTED_EDGE('',*,*,#298,.F.);
#96=ORIENTED_EDGE('',*,*,#256,.F.);
#97=ORIENTED_EDGE('',*,*,#299,.T.);
#98=ORIENTED_EDGE('',*,*,#300,.T.);
#99=ORIENTED_EDGE('',*,*,#240,.F.);
#100=ORIENTED_EDGE('',*,*,#301,.T.);
#101=ORIENTED_EDGE('',*,*,#302,.T.);
#102=ORIENTED_EDGE('',*,*,#303,.F.);
#103=ORIENTED_EDGE('',*,*,#304,.T.);
#104=ORIENTED_EDGE('',*,*,#305,.T.);
#105=ORIENTED_EDGE('',*,*,#306,.F.);
#106=ORIENTED_EDGE('',*,*,#307,.F.);
#107=ORIENTED_EDGE('',*,*,#308,.T.);
#108=ORIENTED_EDGE('',*,*,#309,.T.);
#109=ORIENTED_EDGE('',*,*,#257,.F.);
#110=ORIENTED_EDGE('',*,*,#302,.F.);
#111=ORIENTED_EDGE('',*,*,#308,.F.);
#112=ORIENTED_EDGE('',*,*,#301,.F.);
#113=ORIENTED_EDGE('',*,*,#239,.T.);
#114=ORIENTED_EDGE('',*,*,#310,.T.);
#115=ORIENTED_EDGE('',*,*,#309,.F.);
#116=ORIENTED_EDGE('',*,*,#310,.F.);
#117=ORIENTED_EDGE('',*,*,#238,.T.);
#118=ORIENTED_EDGE('',*,*,#258,.T.);
#119=ORIENTED_EDGE('',*,*,#294,.T.);
#120=ORIENTED_EDGE('',*,*,#303,.T.);
#121=ORIENTED_EDGE('',*,*,#311,.T.);
#122=ORIENTED_EDGE('',*,*,#304,.F.);
#123=ORIENTED_EDGE('',*,*,#312,.F.);
#124=ORIENTED_EDGE('',*,*,#296,.F.);
#125=ORIENTED_EDGE('',*,*,#297,.T.);
#126=ORIENTED_EDGE('',*,*,#312,.T.);
#127=ORIENTED_EDGE('',*,*,#307,.T.);
#128=ORIENTED_EDGE('',*,*,#313,.F.);
#129=ORIENTED_EDGE('',*,*,#298,.T.);
#130=ORIENTED_EDGE('',*,*,#313,.T.);
#131=ORIENTED_EDGE('',*,*,#306,.T.);
#132=ORIENTED_EDGE('',*,*,#314,.F.);
#133=ORIENTED_EDGE('',*,*,#314,.T.);
#134=ORIENTED_EDGE('',*,*,#305,.F.);
#135=ORIENTED_EDGE('',*,*,#311,.F.);
#136=ORIENTED_EDGE('',*,*,#295,.F.);
#137=ORIENTED_EDGE('',*,*,#275,.T.);
#138=ORIENTED_EDGE('',*,*,#315,.F.);
#139=ORIENTED_EDGE('',*,*,#316,.F.);
#140=ORIENTED_EDGE('',*,*,#286,.T.);
#141=ORIENTED_EDGE('',*,*,#274,.T.);
#142=ORIENTED_EDGE('',*,*,#317,.F.);
#143=ORIENTED_EDGE('',*,*,#318,.F.);
#144=ORIENTED_EDGE('',*,*,#315,.T.);
#145=ORIENTED_EDGE('',*,*,#273,.F.);
#146=ORIENTED_EDGE('',*,*,#288,.F.);
#147=ORIENTED_EDGE('',*,*,#319,.T.);
#148=ORIENTED_EDGE('',*,*,#317,.T.);
#149=ORIENTED_EDGE('',*,*,#287,.F.);
#150=ORIENTED_EDGE('',*,*,#316,.T.);
#151=ORIENTED_EDGE('',*,*,#318,.T.);
#152=ORIENTED_EDGE('',*,*,#319,.F.);
#153=ORIENTED_EDGE('',*,*,#269,.F.);
#154=ORIENTED_EDGE('',*,*,#251,.F.);
#155=ORIENTED_EDGE('',*,*,#320,.T.);
#156=ORIENTED_EDGE('',*,*,#321,.T.);
#157=ORIENTED_EDGE('',*,*,#271,.T.);
#158=ORIENTED_EDGE('',*,*,#322,.F.);
#159=ORIENTED_EDGE('',*,*,#323,.F.);
#160=ORIENTED_EDGE('',*,*,#249,.T.);
#161=ORIENTED_EDGE('',*,*,#270,.F.);
#162=ORIENTED_EDGE('',*,*,#321,.F.);
#163=ORIENTED_EDGE('',*,*,#324,.T.);
#164=ORIENTED_EDGE('',*,*,#322,.T.);
#165=ORIENTED_EDGE('',*,*,#320,.F.);
#166=ORIENTED_EDGE('',*,*,#250,.T.);
#167=ORIENTED_EDGE('',*,*,#323,.T.);
#168=ORIENTED_EDGE('',*,*,#324,.F.);
#169=ORIENTED_EDGE('',*,*,#265,.F.);
#170=ORIENTED_EDGE('',*,*,#292,.F.);
#171=ORIENTED_EDGE('',*,*,#325,.T.);
#172=ORIENTED_EDGE('',*,*,#326,.T.);
#173=ORIENTED_EDGE('',*,*,#267,.T.);
#174=ORIENTED_EDGE('',*,*,#327,.F.);
#175=ORIENTED_EDGE('',*,*,#328,.F.);
#176=ORIENTED_EDGE('',*,*,#290,.T.);
#177=ORIENTED_EDGE('',*,*,#266,.F.);
#178=ORIENTED_EDGE('',*,*,#326,.F.);
#179=ORIENTED_EDGE('',*,*,#329,.T.);
#180=ORIENTED_EDGE('',*,*,#327,.T.);
#181=ORIENTED_EDGE('',*,*,#325,.F.);
#182=ORIENTED_EDGE('',*,*,#291,.T.);
#183=ORIENTED_EDGE('',*,*,#328,.T.);
#184=ORIENTED_EDGE('',*,*,#329,.F.);
#185=ORIENTED_EDGE('',*,*,#262,.T.);
#186=ORIENTED_EDGE('',*,*,#330,.F.);
#187=ORIENTED_EDGE('',*,*,#331,.F.);
#188=ORIENTED_EDGE('',*,*,#281,.T.);
#189=ORIENTED_EDGE('',*,*,#261,.T.);
#190=ORIENTED_EDGE('',*,*,#332,.F.);
#191=ORIENTED_EDGE('',*,*,#333,.F.);
#192=ORIENTED_EDGE('',*,*,#330,.T.);
#193=ORIENTED_EDGE('',*,*,#260,.F.);
#194=ORIENTED_EDGE('',*,*,#283,.F.);
#195=ORIENTED_EDGE('',*,*,#334,.T.);
#196=ORIENTED_EDGE('',*,*,#332,.T.);
#197=ORIENTED_EDGE('',*,*,#282,.F.);
#198=ORIENTED_EDGE('',*,*,#331,.T.);
#199=ORIENTED_EDGE('',*,*,#333,.T.);
#200=ORIENTED_EDGE('',*,*,#334,.F.);
#201=ORIENTED_EDGE('',*,*,#278,.F.);
#202=ORIENTED_EDGE('',*,*,#335,.F.);
#203=ORIENTED_EDGE('',*,*,#336,.T.);
#204=ORIENTED_EDGE('',*,*,#337,.T.);
#205=ORIENTED_EDGE('',*,*,#277,.T.);
#206=ORIENTED_EDGE('',*,*,#338,.F.);
#207=ORIENTED_EDGE('',*,*,#339,.F.);
#208=ORIENTED_EDGE('',*,*,#335,.T.);
#209=ORIENTED_EDGE('',*,*,#280,.T.);
#210=ORIENTED_EDGE('',*,*,#340,.F.);
#211=ORIENTED_EDGE('',*,*,#341,.F.);
#212=ORIENTED_EDGE('',*,*,#338,.T.);
#213=ORIENTED_EDGE('',*,*,#279,.F.);
#214=ORIENTED_EDGE('',*,*,#337,.F.);
#215=ORIENTED_EDGE('',*,*,#342,.T.);
#216=ORIENTED_EDGE('',*,*,#340,.T.);
#217=ORIENTED_EDGE('',*,*,#336,.F.);
#218=ORIENTED_EDGE('',*,*,#339,.T.);
#219=ORIENTED_EDGE('',*,*,#341,.T.);
#220=ORIENTED_EDGE('',*,*,#342,.F.);
#221=ORIENTED_EDGE('',*,*,#299,.F.);
#222=ORIENTED_EDGE('',*,*,#255,.F.);
#223=ORIENTED_EDGE('',*,*,#343,.F.);
#224=ORIENTED_EDGE('',*,*,#245,.F.);
#225=ORIENTED_EDGE('',*,*,#289,.T.);
#226=ORIENTED_EDGE('',*,*,#344,.T.);
#227=ORIENTED_EDGE('',*,*,#300,.F.);
#228=ORIENTED_EDGE('',*,*,#344,.F.);
#229=ORIENTED_EDGE('',*,*,#293,.T.);
#230=ORIENTED_EDGE('',*,*,#241,.T.);
#231=ORIENTED_EDGE('',*,*,#254,.T.);
#232=ORIENTED_EDGE('',*,*,#236,.F.);
#233=ORIENTED_EDGE('',*,*,#246,.F.);
#234=ORIENTED_EDGE('',*,*,#343,.T.);
#235=EDGE_CURVE('',#345,#346,#419,.T.);
#236=EDGE_CURVE('',#345,#347,#420,.T.);
#237=EDGE_CURVE('',#347,#348,#421,.T.);
#238=EDGE_CURVE('',#349,#348,#422,.T.);
#239=EDGE_CURVE('',#350,#349,#423,.T.);
#240=EDGE_CURVE('',#350,#351,#424,.T.);
#241=EDGE_CURVE('',#352,#351,#425,.T.);
#242=EDGE_CURVE('',#353,#352,#426,.T.);
#243=EDGE_CURVE('',#353,#354,#427,.T.);
#244=EDGE_CURVE('',#354,#346,#428,.T.);
#245=EDGE_CURVE('',#355,#356,#429,.T.);
#246=EDGE_CURVE('',#356,#345,#430,.T.);
#247=EDGE_CURVE('',#346,#357,#431,.T.);
#248=EDGE_CURVE('',#358,#357,#432,.T.);
#249=EDGE_CURVE('',#359,#358,#433,.T.);
#250=EDGE_CURVE('',#360,#359,#434,.T.);
#251=EDGE_CURVE('',#360,#361,#435,.T.);
#252=EDGE_CURVE('',#362,#361,#436,.T.);
#253=EDGE_CURVE('',#355,#362,#437,.T.);
#254=EDGE_CURVE('',#363,#347,#438,.T.);
#255=EDGE_CURVE('',#363,#364,#439,.T.);
#256=EDGE_CURVE('',#364,#365,#440,.T.);
#257=EDGE_CURVE('',#365,#366,#441,.T.);
#258=EDGE_CURVE('',#348,#366,#442,.T.);
#259=EDGE_CURVE('',#367,#368,#443,.T.);
#260=EDGE_CURVE('',#367,#369,#444,.T.);
#261=EDGE_CURVE('',#370,#369,#445,.T.);
#262=EDGE_CURVE('',#371,#370,#446,.T.);
#263=EDGE_CURVE('',#372,#371,#447,.T.);
#264=EDGE_CURVE('',#372,#373,#448,.T.);
#265=EDGE_CURVE('',#373,#374,#449,.T.);
#266=EDGE_CURVE('',#374,#375,#450,.T.);
#267=EDGE_CURVE('',#376,#375,#451,.T.);
#268=EDGE_CURVE('',#376,#362,#452,.T.);
#269=EDGE_CURVE('',#361,#377,#453,.T.);
#270=EDGE_CURVE('',#377,#378,#454,.T.);
#271=EDGE_CURVE('',#358,#378,#455,.T.);
#272=EDGE_CURVE('',#379,#357,#456,.T.);
#273=EDGE_CURVE('',#379,#380,#457,.T.);
#274=EDGE_CURVE('',#381,#380,#458,.T.);
#275=EDGE_CURVE('',#382,#381,#459,.T.);
#276=EDGE_CURVE('',#368,#382,#460,.T.);
#277=EDGE_CURVE('',#383,#384,#461,.T.);
#278=EDGE_CURVE('',#383,#385,#462,.T.);
#279=EDGE_CURVE('',#385,#386,#463,.T.);
#280=EDGE_CURVE('',#384,#386,#464,.T.);
#281=EDGE_CURVE('',#387,#371,#465,.T.);
#282=EDGE_CURVE('',#387,#388,#466,.T.);
#283=EDGE_CURVE('',#388,#367,#467,.T.);
#284=EDGE_CURVE('',#354,#368,#468,.T.);
#285=EDGE_CURVE('',#353,#372,#469,.T.);
#286=EDGE_CURVE('',#389,#382,#470,.T.);
#287=EDGE_CURVE('',#389,#390,#471,.T.);
#288=EDGE_CURVE('',#390,#379,#472,.T.);
#289=EDGE_CURVE('',#355,#391,#473,.T.);
#290=EDGE_CURVE('',#392,#376,#474,.T.);
#291=EDGE_CURVE('',#393,#392,#475,.T.);
#292=EDGE_CURVE('',#393,#373,#476,.T.);
#293=EDGE_CURVE('',#391,#352,#477,.T.);
#294=EDGE_CURVE('',#394,#394,#13,.T.);
#295=EDGE_CURVE('',#395,#396,#478,.T.);
#296=EDGE_CURVE('',#396,#397,#479,.T.);
#297=EDGE_CURVE('',#398,#397,#480,.T.);
#298=EDGE_CURVE('',#395,#398,#481,.T.);
#299=EDGE_CURVE('',#364,#399,#482,.T.);
#300=EDGE_CURVE('',#399,#351,#483,.T.);
#301=EDGE_CURVE('',#350,#400,#484,.T.);
#302=EDGE_CURVE('',#400,#365,#485,.T.);
#303=EDGE_CURVE('',#401,#401,#14,.T.);
#304=EDGE_CURVE('',#402,#403,#486,.T.);
#305=EDGE_CURVE('',#403,#404,#487,.T.);
#306=EDGE_CURVE('',#405,#404,#488,.T.);
#307=EDGE_CURVE('',#402,#405,#489,.T.);
#308=EDGE_CURVE('',#400,#406,#490,.T.);
#309=EDGE_CURVE('',#406,#366,#491,.T.);
#310=EDGE_CURVE('',#349,#406,#492,.T.);
#311=EDGE_CURVE('',#396,#403,#493,.T.);
#312=EDGE_CURVE('',#397,#402,#494,.T.);
#313=EDGE_CURVE('',#398,#405,#495,.T.);
#314=EDGE_CURVE('',#395,#404,#496,.T.);
#315=EDGE_CURVE('',#407,#381,#497,.T.);
#316=EDGE_CURVE('',#389,#407,#498,.T.);
#317=EDGE_CURVE('',#408,#380,#499,.T.);
#318=EDGE_CURVE('',#407,#408,#500,.T.);
#319=EDGE_CURVE('',#390,#408,#501,.T.);
#320=EDGE_CURVE('',#360,#409,#502,.T.);
#321=EDGE_CURVE('',#409,#377,#503,.T.);
#322=EDGE_CURVE('',#410,#378,#504,.T.);
#323=EDGE_CURVE('',#359,#410,#505,.T.);
#324=EDGE_CURVE('',#409,#410,#506,.T.);
#325=EDGE_CURVE('',#393,#411,#507,.T.);
#326=EDGE_CURVE('',#411,#374,#508,.T.);
#327=EDGE_CURVE('',#412,#375,#509,.T.);
#328=EDGE_CURVE('',#392,#412,#510,.T.);
#329=EDGE_CURVE('',#411,#412,#511,.T.);
#330=EDGE_CURVE('',#413,#370,#512,.T.);
#331=EDGE_CURVE('',#387,#413,#513,.T.);
#332=EDGE_CURVE('',#414,#369,#514,.T.);
#333=EDGE_CURVE('',#413,#414,#515,.T.);
#334=EDGE_CURVE('',#388,#414,#516,.T.);
#335=EDGE_CURVE('',#415,#383,#517,.T.);
#336=EDGE_CURVE('',#415,#416,#518,.T.);
#337=EDGE_CURVE('',#416,#385,#519,.T.);
#338=EDGE_CURVE('',#417,#384,#520,.T.);
#339=EDGE_CURVE('',#415,#417,#521,.T.);
#340=EDGE_CURVE('',#418,#386,#522,.T.);
#341=EDGE_CURVE('',#417,#418,#523,.T.);
#342=EDGE_CURVE('',#416,#418,#524,.T.);
#343=EDGE_CURVE('',#356,#363,#525,.T.);
#344=EDGE_CURVE('',#391,#399,#526,.T.);
#345=VERTEX_POINT('',#1058);
#346=VERTEX_POINT('',#1059);
#347=VERTEX_POINT('',#1061);
#348=VERTEX_POINT('',#1063);
#349=VERTEX_POINT('',#1065);
#350=VERTEX_POINT('',#1067);
#351=VERTEX_POINT('',#1069);
#352=VERTEX_POINT('',#1071);
#353=VERTEX_POINT('',#1073);
#354=VERTEX_POINT('',#1075);
#355=VERTEX_POINT('',#1079);
#356=VERTEX_POINT('',#1080);
#357=VERTEX_POINT('',#1083);
#358=VERTEX_POINT('',#1085);
#359=VERTEX_POINT('',#1087);
#360=VERTEX_POINT('',#1089);
#361=VERTEX_POINT('',#1091);
#362=VERTEX_POINT('',#1093);
#363=VERTEX_POINT('',#1097);
#364=VERTEX_POINT('',#1099);
#365=VERTEX_POINT('',#1101);
#366=VERTEX_POINT('',#1103);
#367=VERTEX_POINT('',#1107);
#368=VERTEX_POINT('',#1108);
#369=VERTEX_POINT('',#1110);
#370=VERTEX_POINT('',#1112);
#371=VERTEX_POINT('',#1114);
#372=VERTEX_POINT('',#1116);
#373=VERTEX_POINT('',#1118);
#374=VERTEX_POINT('',#1120);
#375=VERTEX_POINT('',#1122);
#376=VERTEX_POINT('',#1124);
#377=VERTEX_POINT('',#1127);
#378=VERTEX_POINT('',#1129);
#379=VERTEX_POINT('',#1132);
#380=VERTEX_POINT('',#1134);
#381=VERTEX_POINT('',#1136);
#382=VERTEX_POINT('',#1138);
#383=VERTEX_POINT('',#1141);
#384=VERTEX_POINT('',#1142);
#385=VERTEX_POINT('',#1144);
#386=VERTEX_POINT('',#1146);
#387=VERTEX_POINT('',#1150);
#388=VERTEX_POINT('',#1152);
#389=VERTEX_POINT('',#1158);
#390=VERTEX_POINT('',#1160);
#391=VERTEX_POINT('',#1164);
#392=VERTEX_POINT('',#1166);
#393=VERTEX_POINT('',#1168);
#394=VERTEX_POINT('',#1172);
#395=VERTEX_POINT('',#1174);
#396=VERTEX_POINT('',#1175);
#397=VERTEX_POINT('',#1177);
#398=VERTEX_POINT('',#1179);
#399=VERTEX_POINT('',#1183);
#400=VERTEX_POINT('',#1186);
#401=VERTEX_POINT('',#1189);
#402=VERTEX_POINT('',#1191);
#403=VERTEX_POINT('',#1192);
#404=VERTEX_POINT('',#1194);
#405=VERTEX_POINT('',#1196);
#406=VERTEX_POINT('',#1200);
#407=VERTEX_POINT('',#1216);
#408=VERTEX_POINT('',#1220);
#409=VERTEX_POINT('',#1227);
#410=VERTEX_POINT('',#1231);
#411=VERTEX_POINT('',#1238);
#412=VERTEX_POINT('',#1242);
#413=VERTEX_POINT('',#1249);
#414=VERTEX_POINT('',#1253);
#415=VERTEX_POINT('',#1260);
#416=VERTEX_POINT('',#1262);
#417=VERTEX_POINT('',#1266);
#418=VERTEX_POINT('',#1270);
#419=LINE('',#1057,#527);
#420=LINE('',#1060,#528);
#421=LINE('',#1062,#529);
#422=LINE('',#1064,#530);
#423=LINE('',#1066,#531);
#424=LINE('',#1068,#532);
#425=LINE('',#1070,#533);
#426=LINE('',#1072,#534);
#427=LINE('',#1074,#535);
#428=LINE('',#1076,#536);
#429=LINE('',#1078,#537);
#430=LINE('',#1081,#538);
#431=LINE('',#1082,#539);
#432=LINE('',#1084,#540);
#433=LINE('',#1086,#541);
#434=LINE('',#1088,#542);
#435=LINE('',#1090,#543);
#436=LINE('',#1092,#544);
#437=LINE('',#1094,#545);
#438=LINE('',#1096,#546);
#439=LINE('',#1098,#547);
#440=LINE('',#1100,#548);
#441=LINE('',#1102,#549);
#442=LINE('',#1104,#550);
#443=LINE('',#1106,#551);
#444=LINE('',#1109,#552);
#445=LINE('',#1111,#553);
#446=LINE('',#1113,#554);
#447=LINE('',#1115,#555);
#448=LINE('',#1117,#556);
#449=LINE('',#1119,#557);
#450=LINE('',#1121,#558);
#451=LINE('',#1123,#559);
#452=LINE('',#1125,#560);
#453=LINE('',#1126,#561);
#454=LINE('',#1128,#562);
#455=LINE('',#1130,#563);
#456=LINE('',#1131,#564);
#457=LINE('',#1133,#565);
#458=LINE('',#1135,#566);
#459=LINE('',#1137,#567);
#460=LINE('',#1139,#568);
#461=LINE('',#1140,#569);
#462=LINE('',#1143,#570);
#463=LINE('',#1145,#571);
#464=LINE('',#1147,#572);
#465=LINE('',#1149,#573);
#466=LINE('',#1151,#574);
#467=LINE('',#1153,#575);
#468=LINE('',#1154,#576);
#469=LINE('',#1155,#577);
#470=LINE('',#1157,#578);
#471=LINE('',#1159,#579);
#472=LINE('',#1161,#580);
#473=LINE('',#1163,#581);
#474=LINE('',#1165,#582);
#475=LINE('',#1167,#583);
#476=LINE('',#1169,#584);
#477=LINE('',#1170,#585);
#478=LINE('',#1173,#586);
#479=LINE('',#1176,#587);
#480=LINE('',#1178,#588);
#481=LINE('',#1180,#589);
#482=LINE('',#1182,#590);
#483=LINE('',#1184,#591);
#484=LINE('',#1185,#592);
#485=LINE('',#1187,#593);
#486=LINE('',#1190,#594);
#487=LINE('',#1193,#595);
#488=LINE('',#1195,#596);
#489=LINE('',#1197,#597);
#490=LINE('',#1199,#598);
#491=LINE('',#1201,#599);
#492=LINE('',#1203,#600);
#493=LINE('',#1207,#601);
#494=LINE('',#1208,#602);
#495=LINE('',#1210,#603);
#496=LINE('',#1212,#604);
#497=LINE('',#1215,#605);
#498=LINE('',#1217,#606);
#499=LINE('',#1219,#607);
#500=LINE('',#1221,#608);
#501=LINE('',#1223,#609);
#502=LINE('',#1226,#610);
#503=LINE('',#1228,#611);
#504=LINE('',#1230,#612);
#505=LINE('',#1232,#613);
#506=LINE('',#1234,#614);
#507=LINE('',#1237,#615);
#508=LINE('',#1239,#616);
#509=LINE('',#1241,#617);
#510=LINE('',#1243,#618);
#511=LINE('',#1245,#619);
#512=LINE('',#1248,#620);
#513=LINE('',#1250,#621);
#514=LINE('',#1252,#622);
#515=LINE('',#1254,#623);
#516=LINE('',#1256,#624);
#517=LINE('',#1259,#625);
#518=LINE('',#1261,#626);
#519=LINE('',#1263,#627);
#520=LINE('',#1265,#628);
#521=LINE('',#1267,#629);
#522=LINE('',#1269,#630);
#523=LINE('',#1271,#631);
#524=LINE('',#1273,#632);
#525=LINE('',#1276,#633);
#526=LINE('',#1277,#634);
#527=VECTOR('',#865,1.);
#528=VECTOR('',#866,1.);
#529=VECTOR('',#867,1.);
#530=VECTOR('',#868,1.);
#531=VECTOR('',#869,1.);
#532=VECTOR('',#870,1.);
#533=VECTOR('',#871,1.);
#534=VECTOR('',#872,1.);
#535=VECTOR('',#873,1.);
#536=VECTOR('',#874,1.);
#537=VECTOR('',#877,1.);
#538=VECTOR('',#878,1.);
#539=VECTOR('',#879,1.);
#540=VECTOR('',#880,1.);
#541=VECTOR('',#881,1.);
#542=VECTOR('',#882,1.);
#543=VECTOR('',#883,1.);
#544=VECTOR('',#884,1.);
#545=VECTOR('',#885,1.);
#546=VECTOR('',#888,1.);
#547=VECTOR('',#889,1.);
#548=VECTOR('',#890,1.);
#549=VECTOR('',#891,1.);
#550=VECTOR('',#892,1.);
#551=VECTOR('',#895,1.);
#552=VECTOR('',#896,1.);
#553=VECTOR('',#897,1.);
#554=VECTOR('',#898,1.);
#555=VECTOR('',#899,1.);
#556=VECTOR('',#900,1.);
#557=VECTOR('',#901,1.);
#558=VECTOR('',#902,1.);
#559=VECTOR('',#903,1.);
#560=VECTOR('',#904,1.);
#561=VECTOR('',#905,1.);
#562=VECTOR('',#906,1.);
#563=VECTOR('',#907,1.);
#564=VECTOR('',#908,1.);
#565=VECTOR('',#909,1.);
#566=VECTOR('',#910,1.);
#567=VECTOR('',#911,1.);
#568=VECTOR('',#912,1.);
#569=VECTOR('',#913,1.);
#570=VECTOR('',#914,1.);
#571=VECTOR('',#915,1.);
#572=VECTOR('',#916,1.);
#573=VECTOR('',#919,1.);
#574=VECTOR('',#920,1.);
#575=VECTOR('',#921,1.);
#576=VECTOR('',#922,1.);
#577=VECTOR('',#923,1.);
#578=VECTOR('',#926,1.);
#579=VECTOR('',#927,1.);
#580=VECTOR('',#928,1.);
#581=VECTOR('',#931,1.);
#582=VECTOR('',#932,1.);
#583=VECTOR('',#933,1.);
#584=VECTOR('',#934,1.);
#585=VECTOR('',#935,1.);
#586=VECTOR('',#938,1.);
#587=VECTOR('',#939,1.);
#588=VECTOR('',#940,1.);
#589=VECTOR('',#941,1.);
#590=VECTOR('',#944,1.);
#591=VECTOR('',#945,1.);
#592=VECTOR('',#946,1.);
#593=VECTOR('',#947,1.);
#594=VECTOR('',#950,1.);
#595=VECTOR('',#951,1.);
#596=VECTOR('',#952,1.);
#597=VECTOR('',#953,1.);
#598=VECTOR('',#956,1.);
#599=VECTOR('',#957,1.);
#600=VECTOR('',#960,1.);
#601=VECTOR('',#967,1.);
#602=VECTOR('',#968,1.);
#603=VECTOR('',#971,1.);
#604=VECTOR('',#974,1.);
#605=VECTOR('',#979,1.);
#606=VECTOR('',#980,1.);
#607=VECTOR('',#983,1.);
#608=VECTOR('',#984,1.);
#609=VECTOR('',#987,1.);
#610=VECTOR('',#992,1.);
#611=VECTOR('',#993,1.);
#612=VECTOR('',#996,1.);
#613=VECTOR('',#997,1.);
#614=VECTOR('',#1000,1.);
#615=VECTOR('',#1005,1.);
#616=VECTOR('',#1006,1.);
#617=VECTOR('',#1009,1.);
#618=VECTOR('',#1010,1.);
#619=VECTOR('',#1013,1.);
#620=VECTOR('',#1018,1.);
#621=VECTOR('',#1019,1.);
#622=VECTOR('',#1022,1.);
#623=VECTOR('',#1023,1.);
#624=VECTOR('',#1026,1.);
#625=VECTOR('',#1031,1.);
#626=VECTOR('',#1032,1.);
#627=VECTOR('',#1033,1.);
#628=VECTOR('',#1036,1.);
#629=VECTOR('',#1037,1.);
#630=VECTOR('',#1040,1.);
#631=VECTOR('',#1041,1.);
#632=VECTOR('',#1044,1.);
#633=VECTOR('',#1049,1.);
#634=VECTOR('',#1050,1.);
#635=EDGE_LOOP('',(#15,#16,#17,#18,#19,#20,#21,#22,#23,#24));
#636=EDGE_LOOP('',(#25,#26,#27,#28,#29,#30,#31,#32,#33,#34));
#637=EDGE_LOOP('',(#35,#36,#37,#38,#39,#40));
#638=EDGE_LOOP('',(#41,#42,#43,#44,#45,#46,#47,#48,#49,#50,#51,#52,#53,
#54,#55,#56,#57,#58,#59,#60));
#639=EDGE_LOOP('',(#61,#62,#63,#64));
#640=EDGE_LOOP('',(#65,#66,#67,#68,#69,#70,#71,#72));
#641=EDGE_LOOP('',(#73,#74,#75,#76,#77,#78,#79,#80));
#642=EDGE_LOOP('',(#81,#82,#83,#84,#85,#86,#87,#88,#89,#90));
#643=EDGE_LOOP('',(#91));
#644=EDGE_LOOP('',(#92,#93,#94,#95));
#645=EDGE_LOOP('',(#96,#97,#98,#99,#100,#101));
#646=EDGE_LOOP('',(#102));
#647=EDGE_LOOP('',(#103,#104,#105,#106));
#648=EDGE_LOOP('',(#107,#108,#109,#110));
#649=EDGE_LOOP('',(#111,#112,#113,#114));
#650=EDGE_LOOP('',(#115,#116,#117,#118));
#651=EDGE_LOOP('',(#119));
#652=EDGE_LOOP('',(#120));
#653=EDGE_LOOP('',(#121,#122,#123,#124));
#654=EDGE_LOOP('',(#125,#126,#127,#128));
#655=EDGE_LOOP('',(#129,#130,#131,#132));
#656=EDGE_LOOP('',(#133,#134,#135,#136));
#657=EDGE_LOOP('',(#137,#138,#139,#140));
#658=EDGE_LOOP('',(#141,#142,#143,#144));
#659=EDGE_LOOP('',(#145,#146,#147,#148));
#660=EDGE_LOOP('',(#149,#150,#151,#152));
#661=EDGE_LOOP('',(#153,#154,#155,#156));
#662=EDGE_LOOP('',(#157,#158,#159,#160));
#663=EDGE_LOOP('',(#161,#162,#163,#164));
#664=EDGE_LOOP('',(#165,#166,#167,#168));
#665=EDGE_LOOP('',(#169,#170,#171,#172));
#666=EDGE_LOOP('',(#173,#174,#175,#176));
#667=EDGE_LOOP('',(#177,#178,#179,#180));
#668=EDGE_LOOP('',(#181,#182,#183,#184));
#669=EDGE_LOOP('',(#185,#186,#187,#188));
#670=EDGE_LOOP('',(#189,#190,#191,#192));
#671=EDGE_LOOP('',(#193,#194,#195,#196));
#672=EDGE_LOOP('',(#197,#198,#199,#200));
#673=EDGE_LOOP('',(#201,#202,#203,#204));
#674=EDGE_LOOP('',(#205,#206,#207,#208));
#675=EDGE_LOOP('',(#209,#210,#211,#212));
#676=EDGE_LOOP('',(#213,#214,#215,#216));
#677=EDGE_LOOP('',(#217,#218,#219,#220));
#678=EDGE_LOOP('',(#221,#222,#223,#224,#225,#226));
#679=EDGE_LOOP('',(#227,#228,#229,#230));
#680=EDGE_LOOP('',(#231,#232,#233,#234));
#681=FACE_BOUND('',#635,.T.);
#682=FACE_BOUND('',#636,.T.);
#683=FACE_BOUND('',#637,.T.);
#684=FACE_BOUND('',#638,.T.);
#685=FACE_BOUND('',#639,.T.);
#686=FACE_BOUND('',#640,.T.);
#687=FACE_BOUND('',#641,.T.);
#688=FACE_BOUND('',#642,.T.);
#689=FACE_BOUND('',#643,.T.);
#690=FACE_BOUND('',#644,.T.);
#691=FACE_BOUND('',#645,.T.);
#692=FACE_BOUND('',#646,.T.);
#693=FACE_BOUND('',#647,.T.);
#694=FACE_BOUND('',#648,.T.);
#695=FACE_BOUND('',#649,.T.);
#696=FACE_BOUND('',#650,.T.);
#697=FACE_BOUND('',#651,.T.);
#698=FACE_BOUND('',#652,.T.);
#699=FACE_BOUND('',#653,.T.);
#700=FACE_BOUND('',#654,.T.);
#701=FACE_BOUND('',#655,.T.);
#702=FACE_BOUND('',#656,.T.);
#703=FACE_BOUND('',#657,.T.);
#704=FACE_BOUND('',#658,.T.);
#705=FACE_BOUND('',#659,.T.);
#706=FACE_BOUND('',#660,.T.);
#707=FACE_BOUND('',#661,.T.);
#708=FACE_BOUND('',#662,.T.);
#709=FACE_BOUND('',#663,.T.);
#710=FACE_BOUND('',#664,.T.);
#711=FACE_BOUND('',#665,.T.);
#712=FACE_BOUND('',#666,.T.);
#713=FACE_BOUND('',#667,.T.);
#714=FACE_BOUND('',#668,.T.);
#715=FACE_BOUND('',#669,.T.);
#716=FACE_BOUND('',#670,.T.);
#717=FACE_BOUND('',#671,.T.);
#718=FACE_BOUND('',#672,.T.);
#719=FACE_BOUND('',#673,.T.);
#720=FACE_BOUND('',#674,.T.);
#721=FACE_BOUND('',#675,.T.);
#722=FACE_BOUND('',#676,.T.);
#723=FACE_BOUND('',#677,.T.);
#724=FACE_BOUND('',#678,.T.);
#725=FACE_BOUND('',#679,.T.);
#726=FACE_BOUND('',#680,.T.);
#727=PLANE('',#819);
#728=PLANE('',#820);
#729=PLANE('',#821);
#730=PLANE('',#822);
#731=PLANE('',#823);
#732=PLANE('',#824);
#733=PLANE('',#825);
#734=PLANE('',#827);
#735=PLANE('',#829);
#736=PLANE('',#830);
#737=PLANE('',#831);
#738=PLANE('',#833);
#739=PLANE('',#834);
#740=PLANE('',#835);
#741=PLANE('',#836);
#742=PLANE('',#837);
#743=PLANE('',#838);
#744=PLANE('',#839);
#745=PLANE('',#840);
#746=PLANE('',#841);
#747=PLANE('',#842);
#748=PLANE('',#843);
#749=PLANE('',#844);
#750=PLANE('',#845);
#751=PLANE('',#846);
#752=PLANE('',#847);
#753=PLANE('',#848);
#754=PLANE('',#849);
#755=PLANE('',#850);
#756=PLANE('',#851);
#757=PLANE('',#852);
#758=PLANE('',#853);
#759=PLANE('',#854);
#760=PLANE('',#855);
#761=PLANE('',#856);
#762=PLANE('',#857);
#763=PLANE('',#858);
#764=PLANE('',#859);
#765=PLANE('',#860);
#766=ADVANCED_FACE('',(#681),#727,.T.);
#767=ADVANCED_FACE('',(#682),#728,.T.);
#768=ADVANCED_FACE('',(#683),#729,.F.);
#769=ADVANCED_FACE('',(#684,#685),#730,.T.);
#770=ADVANCED_FACE('',(#686),#731,.F.);
#771=ADVANCED_FACE('',(#687),#732,.F.);
#772=ADVANCED_FACE('',(#688,#689,#690),#733,.T.);
#773=ADVANCED_FACE('',(#691,#692,#693),#734,.F.);
#774=ADVANCED_FACE('',(#694),#735,.F.);
#775=ADVANCED_FACE('',(#695),#736,.T.);
#776=ADVANCED_FACE('',(#696),#737,.T.);
#777=ADVANCED_FACE('',(#697,#698),#12,.F.);
#778=ADVANCED_FACE('',(#699),#738,.T.);
#779=ADVANCED_FACE('',(#700),#739,.F.);
#780=ADVANCED_FACE('',(#701),#740,.F.);
#781=ADVANCED_FACE('',(#702),#741,.T.);
#782=ADVANCED_FACE('',(#703),#742,.F.);
#783=ADVANCED_FACE('',(#704),#743,.F.);
#784=ADVANCED_FACE('',(#705),#744,.T.);
#785=ADVANCED_FACE('',(#706),#745,.T.);
#786=ADVANCED_FACE('',(#707),#746,.T.);
#787=ADVANCED_FACE('',(#708),#747,.F.);
#788=ADVANCED_FACE('',(#709),#748,.T.);
#789=ADVANCED_FACE('',(#710),#749,.T.);
#790=ADVANCED_FACE('',(#711),#750,.T.);
#791=ADVANCED_FACE('',(#712),#751,.F.);
#792=ADVANCED_FACE('',(#713),#752,.T.);
#793=ADVANCED_FACE('',(#714),#753,.T.);
#794=ADVANCED_FACE('',(#715),#754,.F.);
#795=ADVANCED_FACE('',(#716),#755,.F.);
#796=ADVANCED_FACE('',(#717),#756,.T.);
#797=ADVANCED_FACE('',(#718),#757,.T.);
#798=ADVANCED_FACE('',(#719),#758,.T.);
#799=ADVANCED_FACE('',(#720),#759,.F.);
#800=ADVANCED_FACE('',(#721),#760,.F.);
#801=ADVANCED_FACE('',(#722),#761,.T.);
#802=ADVANCED_FACE('',(#723),#762,.T.);
#803=ADVANCED_FACE('',(#724),#763,.T.);
#804=ADVANCED_FACE('',(#725),#764,.T.);
#805=ADVANCED_FACE('',(#726),#765,.F.);
#806=CLOSED_SHELL('',(#766,#767,#768,#769,#770,#771,#772,#773,#774,#775,
#776,#777,#778,#779,#780,#781,#782,#783,#784,#785,#786,#787,#788,#789,#790,
#791,#792,#793,#794,#795,#796,#797,#798,#799,#800,#801,#802,#803,#804,#805));
#807=STYLED_ITEM('',(#808),#815);
#808=PRESENTATION_STYLE_ASSIGNMENT((#809));
#809=SURFACE_STYLE_USAGE(.BOTH.,#810);
#810=SURFACE_SIDE_STYLE('',(#811));
#811=SURFACE_STYLE_FILL_AREA(#812);
#812=FILL_AREA_STYLE('',(#813));
#813=FILL_AREA_STYLE_COLOUR('',#814);
#814=COLOUR_RGB('',0.615686274509804,0.811764705882353,0.929411764705882);
#815=MANIFOLD_SOLID_BREP('Part 1',#806);
#816=SHAPE_DEFINITION_REPRESENTATION(#1286,#817);
#817=SHAPE_REPRESENTATION('Part 1',(#818),#1281);
#818=AXIS2_PLACEMENT_3D('',#1055,#861,#862);
#819=AXIS2_PLACEMENT_3D('',#1056,#863,#864);
#820=AXIS2_PLACEMENT_3D('',#1077,#875,#876);
#821=AXIS2_PLACEMENT_3D('',#1095,#886,#887);
#822=AXIS2_PLACEMENT_3D('',#1105,#893,#894);
#823=AXIS2_PLACEMENT_3D('',#1148,#917,#918);
#824=AXIS2_PLACEMENT_3D('',#1156,#924,#925);
#825=AXIS2_PLACEMENT_3D('',#1162,#929,#930);
#826=AXIS2_PLACEMENT_3D('',#1171,#936,#937);
#827=AXIS2_PLACEMENT_3D('',#1181,#942,#943);
#828=AXIS2_PLACEMENT_3D('',#1188,#948,#949);
#829=AXIS2_PLACEMENT_3D('',#1198,#954,#955);
#830=AXIS2_PLACEMENT_3D('',#1202,#958,#959);
#831=AXIS2_PLACEMENT_3D('',#1204,#961,#962);
#832=AXIS2_PLACEMENT_3D('',#1205,#963,#964);
#833=AXIS2_PLACEMENT_3D('',#1206,#965,#966);
#834=AXIS2_PLACEMENT_3D('',#1209,#969,#970);
#835=AXIS2_PLACEMENT_3D('',#1211,#972,#973);
#836=AXIS2_PLACEMENT_3D('',#1213,#975,#976);
#837=AXIS2_PLACEMENT_3D('',#1214,#977,#978);
#838=AXIS2_PLACEMENT_3D('',#1218,#981,#982);
#839=AXIS2_PLACEMENT_3D('',#1222,#985,#986);
#840=AXIS2_PLACEMENT_3D('',#1224,#988,#989);
#841=AXIS2_PLACEMENT_3D('',#1225,#990,#991);
#842=AXIS2_PLACEMENT_3D('',#1229,#994,#995);
#843=AXIS2_PLACEMENT_3D('',#1233,#998,#999);
#844=AXIS2_PLACEMENT_3D('',#1235,#1001,#1002);
#845=AXIS2_PLACEMENT_3D('',#1236,#1003,#1004);
#846=AXIS2_PLACEMENT_3D('',#1240,#1007,#1008);
#847=AXIS2_PLACEMENT_3D('',#1244,#1011,#1012);
#848=AXIS2_PLACEMENT_3D('',#1246,#1014,#1015);
#849=AXIS2_PLACEMENT_3D('',#1247,#1016,#1017);
#850=AXIS2_PLACEMENT_3D('',#1251,#1020,#1021);
#851=AXIS2_PLACEMENT_3D('',#1255,#1024,#1025);
#852=AXIS2_PLACEMENT_3D('',#1257,#1027,#1028);
#853=AXIS2_PLACEMENT_3D('',#1258,#1029,#1030);
#854=AXIS2_PLACEMENT_3D('',#1264,#1034,#1035);
#855=AXIS2_PLACEMENT_3D('',#1268,#1038,#1039);
#856=AXIS2_PLACEMENT_3D('',#1272,#1042,#1043);
#857=AXIS2_PLACEMENT_3D('',#1274,#1045,#1046);
#858=AXIS2_PLACEMENT_3D('',#1275,#1047,#1048);
#859=AXIS2_PLACEMENT_3D('',#1278,#1051,#1052);
#860=AXIS2_PLACEMENT_3D('',#1279,#1053,#1054);
#861=DIRECTION('',(0.,0.,1.));
#862=DIRECTION('',(1.,0.,0.));
#863=DIRECTION('',(0.,0.,1.));
#864=DIRECTION('',(1.,0.,0.));
#865=DIRECTION('',(1.,0.,0.));
#866=DIRECTION('',(0.,-1.,0.));
#867=DIRECTION('',(1.,0.,0.));
#868=DIRECTION('',(0.,-1.,0.));
#869=DIRECTION('',(1.,0.,0.));
#870=DIRECTION('',(0.,-1.,0.));
#871=DIRECTION('',(-1.,0.,0.));
#872=DIRECTION('',(7.67576759281773E-17,-1.,0.));
#873=DIRECTION('',(1.,0.,0.));
#874=DIRECTION('',(7.67576759281773E-17,-1.,0.));
#875=DIRECTION('',(0.,1.,0.));
#876=DIRECTION('',(0.,0.,1.));
#877=DIRECTION('',(1.,0.,0.));
#878=DIRECTION('',(0.832050294337843,0.,0.55470019622523));
#879=DIRECTION('',(0.,0.,-1.));
#880=DIRECTION('',(1.,0.,0.));
#881=DIRECTION('',(0.,0.,-1.));
#882=DIRECTION('',(1.,0.,0.));
#883=DIRECTION('',(0.,0.,-1.));
#884=DIRECTION('',(1.,0.,0.));
#885=DIRECTION('',(0.,0.,-1.));
#886=DIRECTION('',(0.,1.,0.));
#887=DIRECTION('',(0.,0.,1.));
#888=DIRECTION('',(0.832050294337843,0.,0.55470019622523));
#889=DIRECTION('',(-1.,0.,0.));
#890=DIRECTION('',(0.,0.,-1.));
#891=DIRECTION('',(1.,0.,0.));
#892=DIRECTION('',(0.,0.,-1.));
#893=DIRECTION('',(0.,0.,1.));
#894=DIRECTION('',(1.,0.,0.));
#895=DIRECTION('',(1.,0.,0.));
#896=DIRECTION('',(0.,-1.,0.));
#897=DIRECTION('',(1.,0.,0.));
#898=DIRECTION('',(0.,-1.,0.));
#899=DIRECTION('',(1.,0.,0.));
#900=DIRECTION('',(7.67576759281773E-17,-1.,0.));
#901=DIRECTION('',(1.,0.,0.));
#902=DIRECTION('',(0.,-1.,0.));
#903=DIRECTION('',(1.,0.,0.));
#904=DIRECTION('',(7.67576759281773E-17,-1.,0.));
#905=DIRECTION('',(0.,1.,0.));
#906=DIRECTION('',(1.,0.,0.));
#907=DIRECTION('',(0.,1.,0.));
#908=DIRECTION('',(7.67576759281773E-17,-1.,0.));
#909=DIRECTION('',(-1.,0.,0.));
#910=DIRECTION('',(3.46944695195362E-16,-1.,0.));
#911=DIRECTION('',(-1.,0.,0.));
#912=DIRECTION('',(7.67576759281773E-17,-1.,0.));
#913=DIRECTION('',(6.54612632444078E-17,-1.,0.));
#914=DIRECTION('',(1.,0.,0.));
#915=DIRECTION('',(6.54612632444078E-17,-1.,0.));
#916=DIRECTION('',(1.,0.,0.));
#917=DIRECTION('',(0.,1.,0.));
#918=DIRECTION('',(0.,0.,1.));
#919=DIRECTION('',(0.,0.,-1.));
#920=DIRECTION('',(1.,0.,0.));
#921=DIRECTION('',(0.,0.,-1.));
#922=DIRECTION('',(0.,0.,-1.));
#923=DIRECTION('',(0.,0.,-1.));
#924=DIRECTION('',(1.,7.67576759281773E-17,0.));
#925=DIRECTION('',(-7.67576759281773E-17,1.,0.));
#926=DIRECTION('',(0.,0.,-1.));
#927=DIRECTION('',(7.67576759281773E-17,-1.,0.));
#928=DIRECTION('',(0.,0.,-1.));
#929=DIRECTION('',(1.,7.67576759281773E-17,0.));
#930=DIRECTION('',(-7.67576759281773E-17,1.,0.));
#931=DIRECTION('',(0.,1.,0.));
#932=DIRECTION('',(0.,0.,-1.));
#933=DIRECTION('',(7.67576759281773E-17,-1.,0.));
#934=DIRECTION('',(0.,0.,-1.));
#935=DIRECTION('',(0.,0.832050294337844,0.554700196225228));
#936=DIRECTION('',(1.,7.67576759281773E-17,0.));
#937=DIRECTION('',(-7.67576759281773E-17,1.,0.));
#938=DIRECTION('',(0.,0.,1.));
#939=DIRECTION('',(-7.67576759281773E-17,1.,0.));
#940=DIRECTION('',(0.,0.,1.));
#941=DIRECTION('',(-7.67576759281773E-17,1.,0.));
#942=DIRECTION('',(1.,0.,0.));
#943=DIRECTION('',(0.,0.,-1.));
#944=DIRECTION('',(0.,1.,0.));
#945=DIRECTION('',(0.,0.832050294337844,0.554700196225228));
#946=DIRECTION('',(0.,0.,-1.));
#947=DIRECTION('',(0.,-1.,0.));
#948=DIRECTION('',(-1.,0.,0.));
#949=DIRECTION('',(0.,0.,1.));
#950=DIRECTION('',(0.,-1.,0.));
#951=DIRECTION('',(0.,0.,-1.));
#952=DIRECTION('',(0.,-1.,0.));
#953=DIRECTION('',(0.,0.,-1.));
#954=DIRECTION('',(0.,0.,1.));
#955=DIRECTION('',(1.,0.,0.));
#956=DIRECTION('',(1.,0.,0.));
#957=DIRECTION('',(0.,-1.,0.));
#958=DIRECTION('',(0.,1.,0.));
#959=DIRECTION('',(0.,0.,1.));
#960=DIRECTION('',(0.,0.,-1.));
#961=DIRECTION('',(1.,0.,0.));
#962=DIRECTION('',(0.,0.,-1.));
#963=DIRECTION('',(-1.,0.,0.));
#964=DIRECTION('',(0.,0.,1.));
#965=DIRECTION('',(0.,0.,-1.));
#966=DIRECTION('',(-1.,0.,0.));
#967=DIRECTION('',(-1.,0.,0.));
#968=DIRECTION('',(-1.,0.,0.));
#969=DIRECTION('',(0.,1.,0.));
#970=DIRECTION('',(0.,0.,1.));
#971=DIRECTION('',(-1.,0.,0.));
#972=DIRECTION('',(0.,0.,-1.));
#973=DIRECTION('',(-1.,0.,0.));
#974=DIRECTION('',(-1.,0.,0.));
#975=DIRECTION('',(0.,1.,0.));
#976=DIRECTION('',(0.,0.,1.));
#977=DIRECTION('',(0.,-1.,0.));
#978=DIRECTION('',(0.,0.,-1.));
#979=DIRECTION('',(0.,0.,-1.));
#980=DIRECTION('',(-1.,0.,0.));
#981=DIRECTION('',(1.,3.46944695195362E-16,0.));
#982=DIRECTION('',(-3.46944695195362E-16,1.,0.));
#983=DIRECTION('',(0.,0.,-1.));
#984=DIRECTION('',(3.46944695195362E-16,-1.,0.));
#985=DIRECTION('',(0.,-1.,0.));
#986=DIRECTION('',(0.,0.,-1.));
#987=DIRECTION('',(-1.,0.,0.));
#988=DIRECTION('',(0.,0.,1.));
#989=DIRECTION('',(1.,0.,0.));
#990=DIRECTION('',(-1.,0.,0.));
#991=DIRECTION('',(0.,0.,1.));
#992=DIRECTION('',(0.,1.,0.));
#993=DIRECTION('',(0.,0.,-1.));
#994=DIRECTION('',(-1.,0.,0.));
#995=DIRECTION('',(0.,0.,1.));
#996=DIRECTION('',(0.,0.,-1.));
#997=DIRECTION('',(0.,1.,0.));
#998=DIRECTION('',(0.,1.,0.));
#999=DIRECTION('',(0.,0.,1.));
#1000=DIRECTION('',(1.,0.,0.));
#1001=DIRECTION('',(0.,0.,1.));
#1002=DIRECTION('',(1.,0.,0.));
#1003=DIRECTION('',(0.,1.,0.));
#1004=DIRECTION('',(0.,0.,1.));
#1005=DIRECTION('',(1.,0.,0.));
#1006=DIRECTION('',(0.,0.,-1.));
#1007=DIRECTION('',(0.,1.,0.));
#1008=DIRECTION('',(0.,0.,1.));
#1009=DIRECTION('',(0.,0.,-1.));
#1010=DIRECTION('',(1.,0.,0.));
#1011=DIRECTION('',(1.,0.,0.));
#1012=DIRECTION('',(0.,0.,-1.));
#1013=DIRECTION('',(0.,-1.,0.));
#1014=DIRECTION('',(0.,0.,1.));
#1015=DIRECTION('',(1.,0.,0.));
#1016=DIRECTION('',(1.,0.,0.));
#1017=DIRECTION('',(0.,0.,-1.));
#1018=DIRECTION('',(0.,0.,-1.));
#1019=DIRECTION('',(0.,-1.,0.));
#1020=DIRECTION('',(0.,1.,0.));
#1021=DIRECTION('',(0.,0.,1.));
#1022=DIRECTION('',(0.,0.,-1.));
#1023=DIRECTION('',(1.,0.,0.));
#1024=DIRECTION('',(1.,0.,0.));
#1025=DIRECTION('',(0.,0.,-1.));
#1026=DIRECTION('',(0.,-1.,0.));
#1027=DIRECTION('',(0.,0.,1.));
#1028=DIRECTION('',(1.,0.,0.));
#1029=DIRECTION('',(0.,-1.,0.));
#1030=DIRECTION('',(0.,0.,-1.));
#1031=DIRECTION('',(0.,0.,1.));
#1032=DIRECTION('',(1.,0.,0.));
#1033=DIRECTION('',(0.,0.,1.));
#1034=DIRECTION('',(-1.,-6.54612632444078E-17,0.));
#1035=DIRECTION('',(6.54612632444078E-17,-1.,0.));
#1036=DIRECTION('',(0.,0.,1.));
#1037=DIRECTION('',(6.54612632444078E-17,-1.,0.));
#1038=DIRECTION('',(0.,-1.,0.));
#1039=DIRECTION('',(0.,0.,-1.));
#1040=DIRECTION('',(0.,0.,1.));
#1041=DIRECTION('',(1.,0.,0.));
#1042=DIRECTION('',(-1.,-6.54612632444078E-17,0.));
#1043=DIRECTION('',(6.54612632444078E-17,-1.,0.));
#1044=DIRECTION('',(6.54612632444078E-17,-1.,0.));
#1045=DIRECTION('',(0.,0.,1.));
#1046=DIRECTION('',(1.,0.,0.));
#1047=DIRECTION('',(0.,0.,1.));
#1048=DIRECTION('',(1.,0.,0.));
#1049=DIRECTION('',(0.,-1.,0.));
#1050=DIRECTION('',(-1.,0.,0.));
#1051=DIRECTION('',(0.,-0.554700196225228,0.832050294337844));
#1052=DIRECTION('',(0.,-0.832050294337844,-0.554700196225228));
#1053=DIRECTION('',(0.55470019622523,0.,-0.832050294337843));
#1054=DIRECTION('',(-0.832050294337843,0.,-0.55470019622523));
#1055=CARTESIAN_POINT('',(0.,0.,0.));
#1056=CARTESIAN_POINT('',(0.,0.,0.018));
#1057=CARTESIAN_POINT('',(3.46944695195361E-18,-0.0452,0.018));
#1058=CARTESIAN_POINT('',(0.0109,-0.0452,0.018));
#1059=CARTESIAN_POINT('',(0.0302,-0.0452,0.018));
#1060=CARTESIAN_POINT('',(0.0109,-0.0452,0.018));
#1061=CARTESIAN_POINT('',(0.0109,-0.0472,0.018));
#1062=CARTESIAN_POINT('',(0.,-0.0472,0.018));
#1063=CARTESIAN_POINT('',(0.0322,-0.0472,0.018));
#1064=CARTESIAN_POINT('',(0.0322,0.,0.018));
#1065=CARTESIAN_POINT('',(0.0322,0.0472,0.018));
#1066=CARTESIAN_POINT('',(0.,0.0472,0.018));
#1067=CARTESIAN_POINT('',(-0.0322,0.0472,0.018));
#1068=CARTESIAN_POINT('',(-0.0322,0.,0.018));
#1069=CARTESIAN_POINT('',(-0.0322,-0.0292,0.018));
#1070=CARTESIAN_POINT('',(-0.0302,-0.0292,0.018));
#1071=CARTESIAN_POINT('',(-0.0302,-0.0292,0.018));
#1072=CARTESIAN_POINT('',(-0.0302,0.,0.018));
#1073=CARTESIAN_POINT('',(-0.0302,0.0452,0.018));
#1074=CARTESIAN_POINT('',(-3.46944695195361E-18,0.0452,0.018));
#1075=CARTESIAN_POINT('',(0.0302,0.0452,0.018));
#1076=CARTESIAN_POINT('',(0.0302,0.,0.018));
#1077=CARTESIAN_POINT('',(3.46944695195361E-18,-0.0452,0.018));
#1078=CARTESIAN_POINT('',(-0.01115,-0.0452,0.016));
#1079=CARTESIAN_POINT('',(-0.0302,-0.0452,0.016));
#1080=CARTESIAN_POINT('',(0.0079,-0.0452,0.016));
#1081=CARTESIAN_POINT('',(0.0094,-0.0452,0.017));
#1082=CARTESIAN_POINT('',(0.0302,-0.0452,0.018));
#1083=CARTESIAN_POINT('',(0.0302,-0.0452,0.002));
#1084=CARTESIAN_POINT('',(3.46944695195361E-18,-0.0452,0.002));
#1085=CARTESIAN_POINT('',(0.01,-0.0452,0.002));
#1086=CARTESIAN_POINT('',(0.01,-0.0452,0.0075));
#1087=CARTESIAN_POINT('',(0.01,-0.0452,0.0075));
#1088=CARTESIAN_POINT('',(3.46944695195361E-18,-0.0452,0.0075));
#1089=CARTESIAN_POINT('',(-0.01,-0.0452,0.0075));
#1090=CARTESIAN_POINT('',(-0.01,-0.0452,0.0075));
#1091=CARTESIAN_POINT('',(-0.01,-0.0452,0.002));
#1092=CARTESIAN_POINT('',(3.46944695195361E-18,-0.0452,0.002));
#1093=CARTESIAN_POINT('',(-0.0302,-0.0452,0.002));
#1094=CARTESIAN_POINT('',(-0.0302,-0.0452,0.018));
#1095=CARTESIAN_POINT('',(0.,-0.0472,0.018));
#1096=CARTESIAN_POINT('',(0.0094,-0.0472,0.017));
#1097=CARTESIAN_POINT('',(0.0079,-0.0472,0.016));
#1098=CARTESIAN_POINT('',(-0.0302,-0.0472,0.016));
#1099=CARTESIAN_POINT('',(-0.0322,-0.0472,0.016));
#1100=CARTESIAN_POINT('',(-0.0322,-0.0472,0.018));
#1101=CARTESIAN_POINT('',(-0.0322,-0.0472,0.));
#1102=CARTESIAN_POINT('',(0.,-0.0472,0.));
#1103=CARTESIAN_POINT('',(0.0322,-0.0472,0.));
#1104=CARTESIAN_POINT('',(0.0322,-0.0472,0.018));
#1105=CARTESIAN_POINT('',(0.,0.,0.002));
#1106=CARTESIAN_POINT('',(-3.46944695195361E-18,0.0452,0.002));
#1107=CARTESIAN_POINT('',(0.01,0.0452,0.002));
#1108=CARTESIAN_POINT('',(0.0302,0.0452,0.002));
#1109=CARTESIAN_POINT('',(0.01,0.0442,0.002));
#1110=CARTESIAN_POINT('',(0.01,0.0432,0.002));
#1111=CARTESIAN_POINT('',(1.7347234759768E-18,0.0432,0.002));
#1112=CARTESIAN_POINT('',(-0.01,0.0432,0.002));
#1113=CARTESIAN_POINT('',(-0.01,0.0442,0.002));
#1114=CARTESIAN_POINT('',(-0.01,0.0452,0.002));
#1115=CARTESIAN_POINT('',(-3.46944695195361E-18,0.0452,0.002));
#1116=CARTESIAN_POINT('',(-0.0302,0.0452,0.002));
#1117=CARTESIAN_POINT('',(-0.0302,0.,0.002));
#1118=CARTESIAN_POINT('',(-0.0302,0.01,0.002));
#1119=CARTESIAN_POINT('',(-0.0292,0.01,0.002));
#1120=CARTESIAN_POINT('',(-0.0282,0.01,0.002));
#1121=CARTESIAN_POINT('',(-0.0282,8.67361737988404E-19,0.002));
#1122=CARTESIAN_POINT('',(-0.0282,-0.01,0.002));
#1123=CARTESIAN_POINT('',(-0.0292,-0.01,0.002));
#1124=CARTESIAN_POINT('',(-0.0302,-0.01,0.002));
#1125=CARTESIAN_POINT('',(-0.0302,0.,0.002));
#1126=CARTESIAN_POINT('',(-0.01,-0.0442,0.002));
#1127=CARTESIAN_POINT('',(-0.01,-0.0432,0.002));
#1128=CARTESIAN_POINT('',(1.7347234759768E-18,-0.0432,0.002));
#1129=CARTESIAN_POINT('',(0.01,-0.0432,0.002));
#1130=CARTESIAN_POINT('',(0.01,-0.0442,0.002));
#1131=CARTESIAN_POINT('',(0.0302,0.,0.002));
#1132=CARTESIAN_POINT('',(0.0302,-0.01,0.002));
#1133=CARTESIAN_POINT('',(0.0292,-0.01,0.002));
#1134=CARTESIAN_POINT('',(0.0282,-0.01,0.002));
#1135=CARTESIAN_POINT('',(0.0282,3.46944695195361E-18,0.002));
#1136=CARTESIAN_POINT('',(0.0282,0.01,0.002));
#1137=CARTESIAN_POINT('',(0.0292,0.01,0.002));
#1138=CARTESIAN_POINT('',(0.0302,0.01,0.002));
#1139=CARTESIAN_POINT('',(0.0302,0.,0.002));
#1140=CARTESIAN_POINT('',(-0.01825,-0.0115,0.002));
#1141=CARTESIAN_POINT('',(-0.01825,0.015,0.002));
#1142=CARTESIAN_POINT('',(-0.01825,-0.038,0.002));
#1143=CARTESIAN_POINT('',(-3.46944695195361E-18,0.015,0.002));
#1144=CARTESIAN_POINT('',(0.01825,0.015,0.002));
#1145=CARTESIAN_POINT('',(0.01825,-0.0115,0.002));
#1146=CARTESIAN_POINT('',(0.01825,-0.038,0.002));
#1147=CARTESIAN_POINT('',(0.,-0.038,0.002));
#1148=CARTESIAN_POINT('',(-3.46944695195361E-18,0.0452,0.018));
#1149=CARTESIAN_POINT('',(-0.01,0.0452,0.0075));
#1150=CARTESIAN_POINT('',(-0.01,0.0452,0.0075));
#1151=CARTESIAN_POINT('',(-3.46944695195361E-18,0.0452,0.0075));
#1152=CARTESIAN_POINT('',(0.01,0.0452,0.0075));
#1153=CARTESIAN_POINT('',(0.01,0.0452,0.0075));
#1154=CARTESIAN_POINT('',(0.0302,0.0452,0.018));
#1155=CARTESIAN_POINT('',(-0.0302,0.0452,0.018));
#1156=CARTESIAN_POINT('',(0.0302,0.,0.018));
#1157=CARTESIAN_POINT('',(0.0302,0.01,0.0075));
#1158=CARTESIAN_POINT('',(0.0302,0.01,0.0075));
#1159=CARTESIAN_POINT('',(0.0302,0.,0.0075));
#1160=CARTESIAN_POINT('',(0.0302,-0.01,0.0075));
#1161=CARTESIAN_POINT('',(0.0302,-0.01,0.0075));
#1162=CARTESIAN_POINT('',(-0.0302,0.,0.018));
#1163=CARTESIAN_POINT('',(-0.0302,-0.0397,0.016));
#1164=CARTESIAN_POINT('',(-0.0302,-0.0322,0.016));
#1165=CARTESIAN_POINT('',(-0.0302,-0.01,0.0075));
#1166=CARTESIAN_POINT('',(-0.0302,-0.01,0.0075));
#1167=CARTESIAN_POINT('',(-0.0302,0.,0.0075));
#1168=CARTESIAN_POINT('',(-0.0302,0.01,0.0075));
#1169=CARTESIAN_POINT('',(-0.0302,0.01,0.0075));
#1170=CARTESIAN_POINT('',(-0.0302,-0.0307,0.017));
#1171=CARTESIAN_POINT('',(-0.0302,0.01811649,0.01291));
#1172=CARTESIAN_POINT('',(-0.0302,0.02111649,0.01291));
#1173=CARTESIAN_POINT('',(-0.0302,-0.00287,0.018));
#1174=CARTESIAN_POINT('',(-0.0302,-0.00287,0.00951));
#1175=CARTESIAN_POINT('',(-0.0302,-0.00287,0.01415));
#1176=CARTESIAN_POINT('',(-0.0302,0.,0.01415));
#1177=CARTESIAN_POINT('',(-0.0302,0.00755,0.01415));
#1178=CARTESIAN_POINT('',(-0.0302,0.00755,0.018));
#1179=CARTESIAN_POINT('',(-0.0302,0.00755,0.00951));
#1180=CARTESIAN_POINT('',(-0.0302,0.,0.00951));
#1181=CARTESIAN_POINT('',(-0.0322,0.,0.018));
#1182=CARTESIAN_POINT('',(-0.0322,-0.0397,0.016));
#1183=CARTESIAN_POINT('',(-0.0322,-0.0322,0.016));
#1184=CARTESIAN_POINT('',(-0.0322,-0.0307,0.017));
#1185=CARTESIAN_POINT('',(-0.0322,0.0472,0.018));
#1186=CARTESIAN_POINT('',(-0.0322,0.0472,0.));
#1187=CARTESIAN_POINT('',(-0.0322,0.,0.));
#1188=CARTESIAN_POINT('',(-0.0322,0.01811649,0.01291));
#1189=CARTESIAN_POINT('',(-0.0322,0.01811649,0.01591));
#1190=CARTESIAN_POINT('',(-0.0322,0.00234,0.01415));
#1191=CARTESIAN_POINT('',(-0.0322,0.00755,0.01415));
#1192=CARTESIAN_POINT('',(-0.0322,-0.00287,0.01415));
#1193=CARTESIAN_POINT('',(-0.0322,-0.00287,0.01183));
#1194=CARTESIAN_POINT('',(-0.0322,-0.00287,0.00951));
#1195=CARTESIAN_POINT('',(-0.0322,0.00234,0.00951));
#1196=CARTESIAN_POINT('',(-0.0322,0.00755,0.00951));
#1197=CARTESIAN_POINT('',(-0.0322,0.00755,0.01183));
#1198=CARTESIAN_POINT('',(0.,0.,0.));
#1199=CARTESIAN_POINT('',(0.,0.0472,0.));
#1200=CARTESIAN_POINT('',(0.0322,0.0472,0.));
#1201=CARTESIAN_POINT('',(0.0322,0.,0.));
#1202=CARTESIAN_POINT('',(0.,0.0472,0.018));
#1203=CARTESIAN_POINT('',(0.0322,0.0472,0.018));
#1204=CARTESIAN_POINT('',(0.0322,0.,0.018));
#1205=CARTESIAN_POINT('',(-0.0072,0.01811649,0.01291));
#1206=CARTESIAN_POINT('',(-0.0072,0.00234,0.01415));
#1207=CARTESIAN_POINT('',(-0.0072,-0.00287,0.01415));
#1208=CARTESIAN_POINT('',(-0.0072,0.00755,0.01415));
#1209=CARTESIAN_POINT('',(-0.0072,0.00755,0.01183));
#1210=CARTESIAN_POINT('',(-0.0072,0.00755,0.00951));
#1211=CARTESIAN_POINT('',(-0.0072,0.00234,0.00951));
#1212=CARTESIAN_POINT('',(-0.0072,-0.00287,0.00951));
#1213=CARTESIAN_POINT('',(-0.0072,-0.00287,0.01183));
#1214=CARTESIAN_POINT('',(0.0292,0.01,0.0075));
#1215=CARTESIAN_POINT('',(0.0282,0.01,0.0075));
#1216=CARTESIAN_POINT('',(0.0282,0.01,0.0075));
#1217=CARTESIAN_POINT('',(0.0292,0.01,0.0075));
#1218=CARTESIAN_POINT('',(0.0282,3.46944695195361E-18,0.0075));
#1219=CARTESIAN_POINT('',(0.0282,-0.01,0.0075));
#1220=CARTESIAN_POINT('',(0.0282,-0.01,0.0075));
#1221=CARTESIAN_POINT('',(0.0282,3.46944695195361E-18,0.0075));
#1222=CARTESIAN_POINT('',(0.0292,-0.01,0.0075));
#1223=CARTESIAN_POINT('',(0.0292,-0.01,0.0075));
#1224=CARTESIAN_POINT('',(0.,0.,0.0075));
#1225=CARTESIAN_POINT('',(-0.01,-0.0442,0.0075));
#1226=CARTESIAN_POINT('',(-0.01,-0.0442,0.0075));
#1227=CARTESIAN_POINT('',(-0.01,-0.0432,0.0075));
#1228=CARTESIAN_POINT('',(-0.01,-0.0432,0.0075));
#1229=CARTESIAN_POINT('',(0.01,-0.0442,0.0075));
#1230=CARTESIAN_POINT('',(0.01,-0.0432,0.0075));
#1231=CARTESIAN_POINT('',(0.01,-0.0432,0.0075));
#1232=CARTESIAN_POINT('',(0.01,-0.0442,0.0075));
#1233=CARTESIAN_POINT('',(1.7347234759768E-18,-0.0432,0.0075));
#1234=CARTESIAN_POINT('',(1.7347234759768E-18,-0.0432,0.0075));
#1235=CARTESIAN_POINT('',(0.,0.,0.0075));
#1236=CARTESIAN_POINT('',(-0.0292,0.01,0.0075));
#1237=CARTESIAN_POINT('',(-0.0292,0.01,0.0075));
#1238=CARTESIAN_POINT('',(-0.0282,0.01,0.0075));
#1239=CARTESIAN_POINT('',(-0.0282,0.01,0.0075));
#1240=CARTESIAN_POINT('',(-0.0292,-0.01,0.0075));
#1241=CARTESIAN_POINT('',(-0.0282,-0.01,0.0075));
#1242=CARTESIAN_POINT('',(-0.0282,-0.01,0.0075));
#1243=CARTESIAN_POINT('',(-0.0292,-0.01,0.0075));
#1244=CARTESIAN_POINT('',(-0.0282,8.67361737988404E-19,0.0075));
#1245=CARTESIAN_POINT('',(-0.0282,8.67361737988404E-19,0.0075));
#1246=CARTESIAN_POINT('',(0.,0.,0.0075));
#1247=CARTESIAN_POINT('',(-0.01,0.0442,0.0075));
#1248=CARTESIAN_POINT('',(-0.01,0.0432,0.0075));
#1249=CARTESIAN_POINT('',(-0.01,0.0432,0.0075));
#1250=CARTESIAN_POINT('',(-0.01,0.0442,0.0075));
#1251=CARTESIAN_POINT('',(1.7347234759768E-18,0.0432,0.0075));
#1252=CARTESIAN_POINT('',(0.01,0.0432,0.0075));
#1253=CARTESIAN_POINT('',(0.01,0.0432,0.0075));
#1254=CARTESIAN_POINT('',(1.7347234759768E-18,0.0432,0.0075));
#1255=CARTESIAN_POINT('',(0.01,0.0442,0.0075));
#1256=CARTESIAN_POINT('',(0.01,0.0442,0.0075));
#1257=CARTESIAN_POINT('',(0.,0.,0.0075));
#1258=CARTESIAN_POINT('',(-3.46944695195361E-18,0.015,0.001));
#1259=CARTESIAN_POINT('',(-0.01825,0.015,0.001));
#1260=CARTESIAN_POINT('',(-0.01825,0.015,0.001));
#1261=CARTESIAN_POINT('',(-3.46944695195361E-18,0.015,0.001));
#1262=CARTESIAN_POINT('',(0.01825,0.015,0.001));
#1263=CARTESIAN_POINT('',(0.01825,0.015,0.001));
#1264=CARTESIAN_POINT('',(-0.01825,-0.0115,0.001));
#1265=CARTESIAN_POINT('',(-0.01825,-0.038,0.001));
#1266=CARTESIAN_POINT('',(-0.01825,-0.038,0.001));
#1267=CARTESIAN_POINT('',(-0.01825,-0.0115,0.001));
#1268=CARTESIAN_POINT('',(0.,-0.038,0.001));
#1269=CARTESIAN_POINT('',(0.01825,-0.038,0.001));
#1270=CARTESIAN_POINT('',(0.01825,-0.038,0.001));
#1271=CARTESIAN_POINT('',(0.,-0.038,0.001));
#1272=CARTESIAN_POINT('',(0.01825,-0.0115,0.001));
#1273=CARTESIAN_POINT('',(0.01825,-0.0115,0.001));
#1274=CARTESIAN_POINT('',(0.,0.,0.001));
#1275=CARTESIAN_POINT('',(-0.0302,-0.0397,0.016));
#1276=CARTESIAN_POINT('',(0.0079,-0.0452,0.016));
#1277=CARTESIAN_POINT('',(-0.0302,-0.0322,0.016));
#1278=CARTESIAN_POINT('',(-0.0302,-0.0307,0.017));
#1279=CARTESIAN_POINT('',(0.0094,-0.0452,0.017));
#1280=MECHANICAL_DESIGN_GEOMETRIC_PRESENTATION_REPRESENTATION('',(#807),
#1281);
#1281=(
GEOMETRIC_REPRESENTATION_CONTEXT(3)
GLOBAL_UNCERTAINTY_ASSIGNED_CONTEXT((#1282))
GLOBAL_UNIT_ASSIGNED_CONTEXT((#1285,#1284,#1283))
REPRESENTATION_CONTEXT('Part 1','TOP_LEVEL_ASSEMBLY_PART')
);
#1282=UNCERTAINTY_MEASURE_WITH_UNIT(LENGTH_MEASURE(1.E-8),#1285,
'DISTANCE_ACCURACY_VALUE','Maximum Tolerance applied to model');
#1283=(
NAMED_UNIT(*)
SI_UNIT($,.STERADIAN.)
SOLID_ANGLE_UNIT()
);
#1284=(
NAMED_UNIT(*)
PLANE_ANGLE_UNIT()
SI_UNIT($,.RADIAN.)
);
#1285=(
LENGTH_UNIT()
NAMED_UNIT(*)
SI_UNIT($,.METRE.)
);
#1286=PRODUCT_DEFINITION_SHAPE('','',#1287);
#1287=PRODUCT_DEFINITION('','',#1289,#1288);
#1288=PRODUCT_DEFINITION_CONTEXT('',#1295,'design');
#1289=PRODUCT_DEFINITION_FORMATION_WITH_SPECIFIED_SOURCE('','',#1291,
 .NOT_KNOWN.);
#1290=PRODUCT_RELATED_PRODUCT_CATEGORY('','',(#1291));
#1291=PRODUCT('Part 1','Part 1','Part 1',(#1293));
#1292=PRODUCT_CATEGORY('','');
#1293=PRODUCT_CONTEXT('',#1295,'mechanical');
#1294=APPLICATION_PROTOCOL_DEFINITION('international standard',
'ap242_managed_model_based_3d_engineering',2020,#1295);
#1295=APPLICATION_CONTEXT('managed model based 3d engineering');
ENDSEC;
END-ISO-10303-21;
